<svg id="eIoeiuv5P3D1" xmlns="http://www.w3.org/2000/svg" xmlns:xlink="http://www.w3.org/1999/xlink" viewBox="0 0 1281 640" shape-rendering="geometricPrecision" text-rendering="geometricPrecision" project-id="bc4c906490c54679b153fd6e04bbe35a" export-id="694cf7ff75214921963a86d7a4515414" cached="false" style="background-color:transparent"><defs><linearGradient id="eIoeiuv5P3D3-fill" x1="480.38" y1="0" x2="480.38" y2="480" spreadMethod="pad" gradientUnits="userSpaceOnUse" gradientTransform="translate(0 0)"><stop id="eIoeiuv5P3D3-fill-0" offset="0%" stop-color="#fcf5e3"/><stop id="eIoeiuv5P3D3-fill-1" offset="72%" stop-color="#fcf5e3"/><stop id="eIoeiuv5P3D3-fill-2" offset="90%" stop-color="rgba(252,245,227,0)"/><stop id="eIoeiuv5P3D3-fill-3" offset="100%" stop-color="rgba(252,245,227,0)"/></linearGradient></defs><g transform="matrix(1.3333 0 0 1.3333 0 0)"><path d="M60,0c0,0,840.75,0,840.75,0c33.15,0,60,26.85,60,60c0,0,0,420,0,420s-960.75,0-960.75,0s0-420,0-420C0,26.85,26.85,0,60,0c0,0,0,0,0,0Z" fill="url(#eIoeiuv5P3D3-fill)" fill-rule="evenodd" stroke-width="0"/></g><g id="eIoeiuv5P3D4" transform="matrix(7.360628 0 0 7.360628 80.503408 185.74212)" clip-path="url(#eIoeiuv5P3D25)"><g><g><path d="M5.36,10.96c0,0,0,3.89,0,3.89.52-.086667.926667-.29,1.22-.61.286667-.32.43-.736667.43-1.25c0,0,0,0,0,0c0-.466667-.126667-.873333-.38-1.22-.246667-.346667-.606667-.596667-1.08-.75c0,0,0,0,0,0s-.19-.06-.19-.06s0,0,0,0Z" fill="#647b83" stroke-width="0"/><path d="M2.91,7.14c0,0,0,0,0,0c0,.48.13.893333.39,1.24.253333.353333.62.606667,1.1.76c0,0,0,0,0,0s0-3.67,0-3.67c-.466667.073333-.833333.256667-1.1.55-.26.286667-.39.66-.39,1.12c0,0,0,0,0,0Z" fill="#647b83" stroke-width="0"/><path d="M5.36,18.24c0,0-.96,0-.96,0s0-2.1,0-2.1c-1-.08-1.786667-.4-2.36-.96s-.87-1.3-.89-2.22c0,0,0,0,0,0s1.44,0,1.44,0c0,.52.156667.946667.47,1.28.32.333333.766667.536667,1.34.61c0,0,0,0,0,0s0-4.19,0-4.19-.43-.13-.43-.13c-.8-.246667-1.416667-.656667-1.85-1.23-.433333-.58-.65-1.26-.65-2.04c0,0,0,0,0,0c0-.853333.263333-1.556667.79-2.11.533333-.553333,1.246667-.873333,2.14-.96c0,0,0,0,0,0s0-2.11,0-2.11.96,0,.96,0s0,2.1,0,2.1c.886667.08,1.596667.4,2.13.96.533333.553333.803333,1.266667.81,2.14c0,0,0,0,0,0s-1.44,0-1.44,0c0-.5-.13-.906667-.39-1.22-.26-.32-.63-.516667-1.11-.59c0,0,0,0,0,0s0,3.97,0,3.97.64.21.64.21c.78.246667,1.383333.663333,1.81,1.25s.64,1.273333.64,2.06c0,0,0,0,0,0c0,.873333-.28,1.6-.84,2.18-.56.573333-1.31.906667-2.25,1c0,0,0,0,0,0s0,2.1,0,2.1s0,0,0,0Z" fill="#647b83" stroke-width="0"/></g><g id="eIoeiuv5P3D10" opacity="0"><path d="M22.72,16c0,0-1.58,0-1.58,0s-1.44-8.8-1.44-8.8s1.24,0,1.24,0s.9,6.21.9,6.21c.033333.233333.066667.49.1.77.026667.286667.046667.52.06.7c0,0,0,0,0,0c.02-.18.043333-.413333.07-.7.026667-.28.063333-.536667.11-.77c0,0,0,0,0,0s1.1-6.21,1.1-6.21s1.44,0,1.44,0s1.1,6.21,1.1,6.21c.046667.233333.086667.49.12.77.04.286667.066667.52.08.7c0,0,0,0,0,0c.02-.18.046667-.413333.08-.7.026667-.28.056667-.536667.09-.77c0,0,0,0,0,0s.93-6.21.93-6.21s1.18,0,1.18,0-1.5,8.8-1.5,8.8-1.58,0-1.58,0-1.01-6.08-1.01-6.08c-.046667-.3-.086667-.616667-.12-.95-.04-.34-.07-.6-.09-.78c0,0,0,0,0,0-.013333.18-.04.44-.08.78-.04.333333-.086667.65-.14.95c0,0,0,0,0,0s-1.06,6.08-1.06,6.08s0,0,0,0Z" fill="#647b83" stroke-width="0"/></g><g id="eIoeiuv5P3D12" opacity="0"><path d="M31.71,16c0,0-1.44,0-1.44,0s0-11.68,0-11.68s1.44,0,1.44,0s0,4.56,0,4.56.02,0,.02,0c.073333-.586667.313333-1.04.72-1.36s.943333-.48,1.61-.48c0,0,0,0,0,0c.886667,0,1.593333.273333,2.12.82.52.54.78,1.28.78,2.22c0,0,0,0,0,0s0,5.92,0,5.92-1.44,0-1.44,0s0-5.68,0-5.68c0-.66-.166667-1.17-.5-1.53-.34-.353333-.796667-.53-1.37-.53c0,0,0,0,0,0-.6,0-1.073333.186667-1.42.56s-.52.9-.52,1.58c0,0,0,0,0,0s0,5.6,0,5.6s0,0,0,0Z" fill="#647b83" stroke-width="0"/></g><g id="eIoeiuv5P3D14" opacity="0"><path d="M43.2,14.85c0,0,0,0,0,0c.626667,0,1.12-.176667,1.48-.53s.54-.87.54-1.55c0,0,0,0,0,0s0-2.34,0-2.34c0-.68-.18-1.196667-.54-1.55s-.853333-.53-1.48-.53c0,0,0,0,0,0-.62,0-1.11.176667-1.47.53-.366667.353333-.55.87-.55,1.55c0,0,0,0,0,0s0,2.34,0,2.34c0,.68.183333,1.196667.55,1.55.36.353333.85.53,1.47.53c0,0,0,0,0,0Z" fill="#647b83" stroke-width="0"/><path d="M43.2,16.13c0,0,0,0,0,0-1.053333,0-1.893333-.31-2.52-.93s-.94-1.483333-.94-2.59c0,0,0,0,0,0s0-2.02,0-2.02c0-1.12.31-1.986667.93-2.6s1.463333-.92,2.53-.92c0,0,0,0,0,0c1.066667,0,1.91.306667,2.53.92s.93,1.48.93,2.6c0,0,0,0,0,0s0,2.02,0,2.02c0,1.106667-.313333,1.97-.94,2.59s-1.466667.93-2.52.93c0,0,0,0,0,0Z" fill="#647b83" stroke-width="0"/></g><g id="eIoeiuv5P3D17" opacity="0"><path d="M52.38,14.94c0,0,0,0,0,0c.706667,0,1.266667-.17,1.68-.51.42-.34.63-.803333.63-1.39c0,0,0,0,0,0s0-1.23,0-1.23-2.56,0-2.56,0c-.473333,0-.856667.14-1.15.42-.293333.286667-.44.663333-.44,1.13c0,0,0,0,0,0c0,.493333.163333.88.49,1.16s.776667.42,1.35.42c0,0,0,0,0,0Z" fill="#647b83" stroke-width="0"/><path d="M52.03,16.16c0,0,0,0,0,0-.906667,0-1.626667-.253333-2.16-.76s-.8-1.17-.8-1.99c0,0,0,0,0,0c0-.546667.123333-1.023333.37-1.43.246667-.4.586667-.716667,1.02-.95.44-.226667.943333-.34,1.51-.34c0,0,0,0,0,0s2.72,0,2.72,0s0-.69,0-.69c0-1.14-.623333-1.71-1.87-1.71c0,0,0,0,0,0-.56,0-1.01.1-1.35.3-.34.206667-.52.49-.54.85c0,0,0,0,0,0s-1.44,0-1.44,0c.053333-.693333.376667-1.266667.97-1.72.586667-.453333,1.373333-.68,2.36-.68c0,0,0,0,0,0c1.066667,0,1.883333.256667,2.45.77.573333.513333.86,1.226667.86,2.14c0,0,0,0,0,0s0,6.05,0,6.05-1.43,0-1.43,0s0-1.6,0-1.6-.03,0-.03,0c-.086667.546667-.356667.976667-.81,1.29-.46.313333-1.07.47-1.83.47c0,0,0,0,0,0Z" fill="#647b83" stroke-width="0"/></g><g id="eIoeiuv5P3D20" opacity="0"><path d="M59.9,16c0,0-1.34,0-1.34,0s0-8.8,0-8.8s1.25,0,1.25,0s0,1.17,0,1.17.03,0,.03,0c.053333-.393333.21-.713333.47-.96s.593333-.37,1-.37c0,0,0,0,0,0c.386667,0,.713333.113333.98.34.266667.22.456667.523333.57.91c0,0,0,0,0,0s.02,0,.02,0c.073333-.386667.24-.69.5-.91.266667-.226667.6-.34,1-.34c0,0,0,0,0,0c.566667,0,1.02.21,1.36.63.333333.42.5.966667.5,1.64c0,0,0,0,0,0s0,6.69,0,6.69-1.34,0-1.34,0s0-6.7,0-6.7c0-.353333-.086667-.633333-.26-.84-.173333-.213333-.406667-.32-.7-.32c0,0,0,0,0,0-.293333,0-.523333.103333-.69.31-.173333.2-.26.476667-.26.83c0,0,0,0,0,0s0,6.72,0,6.72-1.18,0-1.18,0s0-6.7,0-6.7c0-.353333-.086667-.633333-.26-.84-.166667-.213333-.396667-.32-.69-.32c0,0,0,0,0,0-.293333,0-.526667.103333-.7.31-.173333.2-.26.476667-.26.83c0,0,0,0,0,0s0,6.72,0,6.72s0,0,0,0Z" fill="#647b83" stroke-width="0"/></g><g id="eIoeiuv5P3D22" opacity="0"><path d="M72.24,5.62c0,0,0,0,0,0-.353333,0-.63-.093333-.83-.28-.206667-.18-.31-.423333-.31-.73c0,0,0,0,0,0c0-.32.103333-.573333.31-.76.2-.186667.476667-.28.83-.28c0,0,0,0,0,0c.353333,0,.63.093333.83.28.206667.186667.31.44.31.76c0,0,0,0,0,0c0,.306667-.103333.55-.31.73-.2.186667-.476667.28-.83.28c0,0,0,0,0,0Z" fill="#647b83" stroke-width="0"/><path d="M76.08,16c0,0-7.52,0-7.52,0s0-1.31,0-1.31s3.12,0,3.12,0s0-6.18,0-6.18-2.8,0-2.8,0s0-1.31,0-1.31s4.24,0,4.24,0s0,7.49,0,7.49s2.96,0,2.96,0s0,1.31,0,1.31s0,0,0,0Z" fill="#647b83" stroke-width="0"/></g></g><clipPath id="eIoeiuv5P3D25"><rect width="100.65" height="101.58" rx="0" ry="0" fill="none" stroke-width="0"/></clipPath></g><g id="eIoeiuv5P3D27" transform="matrix(7.360628 0 0 7.360628 76.446216 185.74212)" opacity="0" clip-path="url(#eIoeiuv5P3D54)"><g><g><path d="M2.93,16c0,0-1.44,0-1.44,0s0-11.68,0-11.68s1.44,0,1.44,0s0,4.99,0,4.99s3.74,0,3.74,0s0-4.99,0-4.99s1.44,0,1.44,0s0,11.68,0,11.68-1.44,0-1.44,0s0-5.38,0-5.38-3.74,0-3.74,0s0,5.38,0,5.38s0,0,0,0Z" fill="#647b83" stroke-width="0"/></g><g><path d="M12.35,10.4c0,0,0,.45,0,.45s4.1,0,4.1,0s0-.45,0-.45c0-.693333-.18-1.23-.54-1.61-.353333-.38-.856667-.57-1.51-.57c0,0,0,0,0,0-.653333,0-1.156667.19-1.51.57-.36.38-.54.916667-.54,1.61c0,0,0,0,0,0s0,0,0,0Z" fill="#647b83" stroke-width="0"/><path d="M14.4,16.16c0,0,0,0,0,0-1.033333,0-1.866667-.313333-2.5-.94-.64-.62-.96-1.48-.96-2.58c0,0,0,0,0,0s0-2.08,0-2.08c0-1.1.32-1.96.96-2.58.633333-.626667,1.466667-.94,2.5-.94c0,0,0,0,0,0c.693333,0,1.3.14,1.82.42.513333.273333.913333.66,1.2,1.16.293333.506667.44,1.1.44,1.78c0,0,0,0,0,0s0,1.57,0,1.57-5.51,0-5.51,0s0,.83,0,.83c0,.653333.186667,1.166667.56,1.54.373333.38.87.57,1.49.57c0,0,0,0,0,0c.533333,0,.973333-.103333,1.32-.31s.556667-.486667.63-.84c0,0,0,0,0,0s1.44,0,1.44,0c-.093333.733333-.45,1.316667-1.07,1.75s-1.393333.65-2.32.65c0,0,0,0,0,0Z" fill="#647b83" stroke-width="0"/></g><g><path d="M24.24,5.62c0,0,0,0,0,0-.353333,0-.63-.093333-.83-.28-.206667-.18-.31-.423333-.31-.73c0,0,0,0,0,0c0-.32.103333-.573333.31-.76.2-.186667.476667-.28.83-.28c0,0,0,0,0,0c.353333,0,.63.093333.83.28.206667.186667.31.44.31.76c0,0,0,0,0,0c0,.306667-.103333.55-.31.73-.2.186667-.476667.28-.83.28c0,0,0,0,0,0Z" fill="#647b83" stroke-width="0"/><path d="M28.08,16c0,0-7.52,0-7.52,0s0-1.31,0-1.31s3.12,0,3.12,0s0-6.18,0-6.18-2.8,0-2.8,0s0-1.31,0-1.31s4.24,0,4.24,0s0,7.49,0,7.49s2.96,0,2.96,0s0,1.31,0,1.31s0,0,0,0Z" fill="#647b83" stroke-width="0"/></g><g><path d="M37.04,16c0,0-2.56,0-2.56,0-.726667,0-1.306667-.21-1.74-.63-.44-.42-.66-.983333-.66-1.69c0,0,0,0,0,0s0-5.17,0-5.17-2.53,0-2.53,0s0-1.31,0-1.31s2.53,0,2.53,0s0-2.48,0-2.48s1.44,0,1.44,0s0,2.48,0,2.48s3.6,0,3.6,0s0,1.31,0,1.31-3.6,0-3.6,0s0,5.17,0,5.17c0,.3.086667.543333.26.73.18.186667.413333.28.7.28c0,0,0,0,0,0s2.56,0,2.56,0s0,1.31,0,1.31s0,0,0,0Z" fill="#647b83" stroke-width="0"/></g><g><path d="M43.2,14.85c0,0,0,0,0,0c.626667,0,1.12-.176667,1.48-.53s.54-.87.54-1.55c0,0,0,0,0,0s0-2.34,0-2.34c0-.68-.18-1.196667-.54-1.55s-.853333-.53-1.48-.53c0,0,0,0,0,0-.62,0-1.11.176667-1.47.53-.366667.353333-.55.87-.55,1.55c0,0,0,0,0,0s0,2.34,0,2.34c0,.68.183333,1.196667.55,1.55.36.353333.85.53,1.47.53c0,0,0,0,0,0Z" fill="#647b83" stroke-width="0"/><path d="M43.2,16.13c0,0,0,0,0,0-1.053333,0-1.893333-.31-2.52-.93s-.94-1.483333-.94-2.59c0,0,0,0,0,0s0-2.02,0-2.02c0-1.12.31-1.986667.93-2.6s1.463333-.92,2.53-.92c0,0,0,0,0,0c1.066667,0,1.91.306667,2.53.92s.93,1.48.93,2.6c0,0,0,0,0,0s0,2.02,0,2.02c0,1.106667-.313333,1.97-.94,2.59s-1.466667.93-2.52.93c0,0,0,0,0,0Z" fill="#647b83" stroke-width="0"/></g><g><path d="M51.23,16c0,0-1.44,0-1.44,0s0-8.8,0-8.8s1.44,0,1.44,0s0,1.68,0,1.68.03,0,.03,0c.08-.566667.32-1.013333.72-1.34.406667-.333333.953333-.5,1.64-.5c0,0,0,0,0,0c.913333,0,1.62.273333,2.12.82.493333.553333.74,1.336667.74,2.35c0,0,0,0,0,0s0,.75,0,.75-1.44,0-1.44,0s0-.75,0-.75c0-1.28-.623333-1.92-1.87-1.92c0,0,0,0,0,0-.633333,0-1.113333.18-1.44.54-.333333.366667-.5.89-.5,1.57c0,0,0,0,0,0s0,5.6,0,5.6s0,0,0,0Z" fill="#647b83" stroke-width="0"/></g><g><path d="M76,16c0,0-6.72,0-6.72,0s0-11.68,0-11.68s1.44,0,1.44,0s0,10.37,0,10.37s5.28,0,5.28,0s0,1.31,0,1.31s0,0,0,0Z" fill="#647b83" stroke-width="0"/></g><g><path d="M81.84,5.62c0,0,0,0,0,0-.353333,0-.63-.093333-.83-.28-.206667-.18-.31-.423333-.31-.73c0,0,0,0,0,0c0-.32.103333-.573333.31-.76.2-.186667.476667-.28.83-.28c0,0,0,0,0,0c.353333,0,.63.093333.83.28.206667.186667.31.44.31.76c0,0,0,0,0,0c0,.306667-.103333.55-.31.73-.2.186667-.476667.28-.83.28c0,0,0,0,0,0Z" fill="#647b83" stroke-width="0"/><path d="M85.68,16c0,0-7.52,0-7.52,0s0-1.31,0-1.31s3.12,0,3.12,0s0-6.18,0-6.18-2.8,0-2.8,0s0-1.31,0-1.31s4.24,0,4.24,0s0,7.49,0,7.49s2.96,0,2.96,0s0,1.31,0,1.31s0,0,0,0Z" fill="#647b83" stroke-width="0"/></g><g><path d="M88.7,16c0,0-1.34,0-1.34,0s0-8.8,0-8.8s1.25,0,1.25,0s0,1.17,0,1.17.03,0,.03,0c.053333-.393333.21-.713333.47-.96s.593333-.37,1-.37c0,0,0,0,0,0c.386667,0,.713333.113333.98.34.266667.22.456667.523333.57.91c0,0,0,0,0,0s.02,0,.02,0c.073333-.386667.24-.69.5-.91.266667-.226667.6-.34,1-.34c0,0,0,0,0,0c.566667,0,1.02.21,1.36.63.333333.42.5.966667.5,1.64c0,0,0,0,0,0s0,6.69,0,6.69-1.34,0-1.34,0s0-6.7,0-6.7c0-.353333-.086667-.633333-.26-.84-.173333-.213333-.406667-.32-.7-.32c0,0,0,0,0,0-.293333,0-.523333.103333-.69.31-.173333.2-.26.476667-.26.83c0,0,0,0,0,0s0,6.72,0,6.72-1.18,0-1.18,0s0-6.7,0-6.7c0-.353333-.086667-.633333-.26-.84-.166667-.213333-.396667-.32-.69-.32c0,0,0,0,0,0-.293333,0-.526667.103333-.7.31-.173333.2-.26.476667-.26.83c0,0,0,0,0,0s0,6.72,0,6.72s0,0,0,0Z" fill="#647b83" stroke-width="0"/></g><g><path d="M100.38,14.94c0,0,0,0,0,0c.706667,0,1.266667-.17,1.68-.51.42-.34.63-.803333.63-1.39c0,0,0,0,0,0s0-1.23,0-1.23-2.56,0-2.56,0c-.473333,0-.856667.14-1.15.42-.293333.286667-.44.663333-.44,1.13c0,0,0,0,0,0c0,.493333.163333.88.49,1.16s.776667.42,1.35.42c0,0,0,0,0,0Z" fill="#647b83" stroke-width="0"/><path d="M100.03,16.16c0,0,0,0,0,0-.906667,0-1.626667-.253333-2.16-.76s-.8-1.17-.8-1.99c0,0,0,0,0,0c0-.546667.123333-1.023333.37-1.43.246667-.4.586667-.716667,1.02-.95.44-.226667.943333-.34,1.51-.34c0,0,0,0,0,0s2.72,0,2.72,0s0-.69,0-.69c0-1.14-.623333-1.71-1.87-1.71c0,0,0,0,0,0-.56,0-1.01.1-1.35.3-.34.206667-.52.49-.54.85c0,0,0,0,0,0s-1.44,0-1.44,0c.053333-.693333.376667-1.266667.97-1.72.586667-.453333,1.373333-.68,2.36-.68c0,0,0,0,0,0c1.066667,0,1.883333.256667,2.45.77.573333.513333.86,1.226667.86,2.14c0,0,0,0,0,0s0,6.05,0,6.05-1.43,0-1.43,0s0-1.6,0-1.6-.03,0-.03,0c-.086667.546667-.356667.976667-.81,1.29-.46.313333-1.07.47-1.83.47c0,0,0,0,0,0Z" fill="#647b83" stroke-width="0"/></g></g><clipPath id="eIoeiuv5P3D54"><rect width="105.619997" height="103.07" rx="0" ry="0" fill="none" stroke-width="0"/></clipPath></g><g id="eIoeiuv5P3D56" transform="matrix(7.360628 0 0 7.360628 80.622248 309.74212)" clip-path="url(#eIoeiuv5P3D74)"><g><g id="eIoeiuv5P3D58" opacity="0"><path d="M5.36,10.96c0,0,0,3.89,0,3.89.52-.086667.926667-.29,1.22-.61.286667-.32.43-.736667.43-1.25c0,0,0,0,0,0c0-.466667-.126667-.873333-.38-1.22-.246667-.346667-.606667-.596667-1.08-.75c0,0,0,0,0,0s-.19-.06-.19-.06s0,0,0,0Z" fill="#647b83" stroke-width="0"/><path d="M2.91,7.14c0,0,0,0,0,0c0,.48.13.893333.39,1.24.253333.353333.62.606667,1.1.76c0,0,0,0,0,0s0-3.67,0-3.67c-.466667.073333-.833333.256667-1.1.55-.26.286667-.39.66-.39,1.12c0,0,0,0,0,0Z" fill="#647b83" stroke-width="0"/><path d="M5.36,18.24c0,0-.96,0-.96,0s0-2.1,0-2.1c-1-.08-1.786667-.4-2.36-.96s-.87-1.3-.89-2.22c0,0,0,0,0,0s1.44,0,1.44,0c0,.52.156667.946667.47,1.28.32.333333.766667.536667,1.34.61c0,0,0,0,0,0s0-4.19,0-4.19-.43-.13-.43-.13c-.8-.246667-1.416667-.656667-1.85-1.23-.433333-.58-.65-1.26-.65-2.04c0,0,0,0,0,0c0-.853333.263333-1.556667.79-2.11.533333-.553333,1.246667-.873333,2.14-.96c0,0,0,0,0,0s0-2.11,0-2.11.96,0,.96,0s0,2.1,0,2.1c.886667.08,1.596667.4,2.13.96.533333.553333.803333,1.266667.81,2.14c0,0,0,0,0,0s-1.44,0-1.44,0c0-.5-.13-.906667-.39-1.22-.26-.32-.63-.516667-1.11-.59c0,0,0,0,0,0s0,3.97,0,3.97.64.21.64.21c.78.246667,1.383333.663333,1.81,1.25s.64,1.273333.64,2.06c0,0,0,0,0,0c0,.873333-.28,1.6-.84,2.18-.56.573333-1.31.906667-2.25,1c0,0,0,0,0,0s0,2.1,0,2.1s0,0,0,0Z" fill="#647b83" stroke-width="0"/></g><g id="eIoeiuv5P3D62" opacity="0"><path d="M24.13,16.16c0,0,0,0,0,0-1.066667,0-1.92-.3-2.56-.9-.64-.593333-.96-1.413333-.96-2.46c0,0,0,0,0,0s0-2.4,0-2.4c0-1.046667.32-1.866667.96-2.46.64-.6,1.493333-.9,2.56-.9c0,0,0,0,0,0c1.013333,0,1.83.273333,2.45.82.626667.54.956667,1.28.99,2.22c0,0,0,0,0,0s-1.44,0-1.44,0c-.033333-.566667-.226667-1-.58-1.3-.353333-.306667-.826667-.46-1.42-.46c0,0,0,0,0,0-.633333,0-1.136667.18-1.51.54-.38.353333-.57.86-.57,1.52c0,0,0,0,0,0s0,2.42,0,2.42c0,.66.19,1.173333.57,1.54.373333.36.876667.54,1.51.54c0,0,0,0,0,0c.593333,0,1.066667-.153333,1.42-.46.353333-.313333.546667-.746667.58-1.3c0,0,0,0,0,0s1.44,0,1.44,0c-.033333.94-.363333,1.68-.99,2.22-.62.546667-1.436667.82-2.45.82c0,0,0,0,0,0Z" fill="#647b83" stroke-width="0"/></g><g id="eIoeiuv5P3D64" opacity="0"><path d="M37.6,16c0,0-2.72,0-2.72,0-.78,0-1.4-.226667-1.86-.68-.466667-.453333-.7-1.053333-.7-1.8c0,0,0,0,0,0s0-7.89,0-7.89-3.04,0-3.04,0s0-1.31,0-1.31s4.48,0,4.48,0s0,9.2,0,9.2c0,.36.1.646667.3.86.206667.206667.48.31.82.31c0,0,0,0,0,0s2.72,0,2.72,0s0,1.31,0,1.31s0,0,0,0Z" fill="#647b83" stroke-width="0"/></g><g id="eIoeiuv5P3D66" opacity="0"><path d="M41.15,10.4c0,0,0,.45,0,.45s4.1,0,4.1,0s0-.45,0-.45c0-.693333-.18-1.23-.54-1.61-.353333-.38-.856667-.57-1.51-.57c0,0,0,0,0,0-.653333,0-1.156667.19-1.51.57-.36.38-.54.916667-.54,1.61c0,0,0,0,0,0s0,0,0,0Z" fill="#647b83" stroke-width="0"/><path d="M43.2,16.16c0,0,0,0,0,0-1.033333,0-1.866667-.313333-2.5-.94-.64-.62-.96-1.48-.96-2.58c0,0,0,0,0,0s0-2.08,0-2.08c0-1.1.32-1.96.96-2.58.633333-.626667,1.466667-.94,2.5-.94c0,0,0,0,0,0c.693333,0,1.3.14,1.82.42.513333.273333.913333.66,1.2,1.16.293333.506667.44,1.1.44,1.78c0,0,0,0,0,0s0,1.57,0,1.57-5.51,0-5.51,0s0,.83,0,.83c0,.653333.186667,1.166667.56,1.54.373333.38.87.57,1.49.57c0,0,0,0,0,0c.533333,0,.973333-.103333,1.32-.31s.556667-.486667.63-.84c0,0,0,0,0,0s1.44,0,1.44,0c-.093333.733333-.45,1.316667-1.07,1.75s-1.393333.65-2.32.65c0,0,0,0,0,0Z" fill="#647b83" stroke-width="0"/></g><g id="eIoeiuv5P3D69" opacity="0"><path d="M52.38,14.94c0,0,0,0,0,0c.706667,0,1.266667-.17,1.68-.51.42-.34.63-.803333.63-1.39c0,0,0,0,0,0s0-1.23,0-1.23-2.56,0-2.56,0c-.473333,0-.856667.14-1.15.42-.293333.286667-.44.663333-.44,1.13c0,0,0,0,0,0c0,.493333.163333.88.49,1.16s.776667.42,1.35.42c0,0,0,0,0,0Z" fill="#647b83" stroke-width="0"/><path d="M52.03,16.16c0,0,0,0,0,0-.906667,0-1.626667-.253333-2.16-.76s-.8-1.17-.8-1.99c0,0,0,0,0,0c0-.546667.123333-1.023333.37-1.43.246667-.4.586667-.716667,1.02-.95.44-.226667.943333-.34,1.51-.34c0,0,0,0,0,0s2.72,0,2.72,0s0-.69,0-.69c0-1.14-.623333-1.71-1.87-1.71c0,0,0,0,0,0-.56,0-1.01.1-1.35.3-.34.206667-.52.49-.54.85c0,0,0,0,0,0s-1.44,0-1.44,0c.053333-.693333.376667-1.266667.97-1.72.586667-.453333,1.373333-.68,2.36-.68c0,0,0,0,0,0c1.066667,0,1.883333.256667,2.45.77.573333.513333.86,1.226667.86,2.14c0,0,0,0,0,0s0,6.05,0,6.05-1.43,0-1.43,0s0-1.6,0-1.6-.03,0-.03,0c-.086667.546667-.356667.976667-.81,1.29-.46.313333-1.07.47-1.83.47c0,0,0,0,0,0Z" fill="#647b83" stroke-width="0"/></g><g id="eIoeiuv5P3D72" opacity="0"><path d="M60.83,16c0,0-1.44,0-1.44,0s0-8.8,0-8.8s1.44,0,1.44,0s0,1.68,0,1.68.03,0,.03,0c.08-.566667.32-1.013333.72-1.34.406667-.333333.953333-.5,1.64-.5c0,0,0,0,0,0c.913333,0,1.62.273333,2.12.82.493333.553333.74,1.336667.74,2.35c0,0,0,0,0,0s0,.75,0,.75-1.44,0-1.44,0s0-.75,0-.75c0-1.28-.623333-1.92-1.87-1.92c0,0,0,0,0,0-.633333,0-1.113333.18-1.44.54-.333333.366667-.5.89-.5,1.57c0,0,0,0,0,0s0,5.6,0,5.6s0,0,0,0Z" fill="#647b83" stroke-width="0"/></g></g><clipPath id="eIoeiuv5P3D74"><rect width="100.65" height="101.58" rx="0" ry="0" fill="none" stroke-width="0"/></clipPath></g>
<script><![CDATA[
!function(t,n){"object"==typeof exports&&"undefined"!=typeof module?module.exports=n():"function"==typeof __SVGATOR_DEFINE__&&__SVGATOR_DEFINE__.amd?__SVGATOR_DEFINE__(n):((t="undefined"!=typeof globalThis?globalThis:t||self).__SVGATOR_PLAYER__=t.__SVGATOR_PLAYER__||{},t.__SVGATOR_PLAYER__["5c7f360c"]=n())}(this,(function(){"use strict";function t(t,n){var e=Object.keys(t);if(Object.getOwnPropertySymbols){var r=Object.getOwnPropertySymbols(t);n&&(r=r.filter((function(n){return Object.getOwnPropertyDescriptor(t,n).enumerable}))),e.push.apply(e,r)}return e}function n(n){for(var e=1;e<arguments.length;e++){var r=null!=arguments[e]?arguments[e]:{};e%2?t(Object(r),!0).forEach((function(t){o(n,t,r[t])})):Object.getOwnPropertyDescriptors?Object.defineProperties(n,Object.getOwnPropertyDescriptors(r)):t(Object(r)).forEach((function(t){Object.defineProperty(n,t,Object.getOwnPropertyDescriptor(r,t))}))}return n}function e(t){return(e="function"==typeof Symbol&&"symbol"==typeof Symbol.iterator?function(t){return typeof t}:function(t){return t&&"function"==typeof Symbol&&t.constructor===Symbol&&t!==Symbol.prototype?"symbol":typeof t})(t)}function r(t,n){if(!(t instanceof n))throw new TypeError("Cannot call a class as a function")}function i(t,n){for(var e=0;e<n.length;e++){var r=n[e];r.enumerable=r.enumerable||!1,r.configurable=!0,"value"in r&&(r.writable=!0),Object.defineProperty(t,r.key,r)}}function u(t,n,e){return n&&i(t.prototype,n),e&&i(t,e),t}function o(t,n,e){return n in t?Object.defineProperty(t,n,{value:e,enumerable:!0,configurable:!0,writable:!0}):t[n]=e,t}function a(t){return(a=Object.setPrototypeOf?Object.getPrototypeOf:function(t){return t.__proto__||Object.getPrototypeOf(t)})(t)}function l(t,n){return(l=Object.setPrototypeOf||function(t,n){return t.__proto__=n,t})(t,n)}function s(){if("undefined"==typeof Reflect||!Reflect.construct)return!1;if(Reflect.construct.sham)return!1;if("function"==typeof Proxy)return!0;try{return Boolean.prototype.valueOf.call(Reflect.construct(Boolean,[],(function(){}))),!0}catch(t){return!1}}function f(t,n,e){return(f=s()?Reflect.construct:function(t,n,e){var r=[null];r.push.apply(r,n);var i=new(Function.bind.apply(t,r));return e&&l(i,e.prototype),i}).apply(null,arguments)}function c(t,n){if(n&&("object"==typeof n||"function"==typeof n))return n;if(void 0!==n)throw new TypeError("Derived constructors may only return object or undefined");return function(t){if(void 0===t)throw new ReferenceError("this hasn't been initialised - super() hasn't been called");return t}(t)}function h(t,n,e){return(h="undefined"!=typeof Reflect&&Reflect.get?Reflect.get:function(t,n,e){var r=function(t,n){for(;!Object.prototype.hasOwnProperty.call(t,n)&&null!==(t=a(t)););return t}(t,n);if(r){var i=Object.getOwnPropertyDescriptor(r,n);return i.get?i.get.call(e):i.value}})(t,n,e||t)}function v(t){return function(t){if(Array.isArray(t))return y(t)}(t)||function(t){if("undefined"!=typeof Symbol&&null!=t[Symbol.iterator]||null!=t["@@iterator"])return Array.from(t)}(t)||function(t,n){if(!t)return;if("string"==typeof t)return y(t,n);var e=Object.prototype.toString.call(t).slice(8,-1);"Object"===e&&t.constructor&&(e=t.constructor.name);if("Map"===e||"Set"===e)return Array.from(t);if("Arguments"===e||/^(?:Ui|I)nt(?:8|16|32)(?:Clamped)?Array$/.test(e))return y(t,n)}(t)||function(){throw new TypeError("Invalid attempt to spread non-iterable instance.\nIn order to be iterable, non-array objects must have a [Symbol.iterator]() method.")}()}function y(t,n){(null==n||n>t.length)&&(n=t.length);for(var e=0,r=new Array(n);e<n;e++)r[e]=t[e];return r}function g(t,n,e){if(Number.isInteger(t))return t;var r=Math.pow(10,n);return Math[e]((+t+Number.EPSILON)*r)/r}Number.isInteger||(Number.isInteger=function(t){return"number"==typeof t&&isFinite(t)&&Math.floor(t)===t}),Number.EPSILON||(Number.EPSILON=2220446049250313e-31);var p=d(Math.pow(10,-6));function d(t){var n=arguments.length>1&&void 0!==arguments[1]?arguments[1]:6;return g(t,n,"round")}function m(t,n){var e=arguments.length>2&&void 0!==arguments[2]?arguments[2]:p;return Math.abs(t-n)<e}d(Math.pow(10,-2)),d(Math.pow(10,-4));var b=Math.PI/180;function w(t){return t*b}function x(t){return t/b}function _(t){return t}function A(t,n,e){var r=1-e;return 3*e*r*(t*r+n*e)+e*e*e}function k(){var t=arguments.length>0&&void 0!==arguments[0]?arguments[0]:0,n=arguments.length>1&&void 0!==arguments[1]?arguments[1]:0,e=arguments.length>2&&void 0!==arguments[2]?arguments[2]:1,r=arguments.length>3&&void 0!==arguments[3]?arguments[3]:1;return t<0||t>1||e<0||e>1?null:m(t,n)&&m(e,r)?_:function(i){if(i<=0)return t>0?i*n/t:0===n&&e>0?i*r/e:0;if(i>=1)return e<1?1+(i-1)*(r-1)/(e-1):1===e&&t<1?1+(i-1)*(n-1)/(t-1):1;for(var u,o=0,a=1;o<a;){var l=A(t,e,u=(o+a)/2);if(m(i,l))break;l<i?o=u:a=u}return A(n,r,u)}}function S(){return 1}function O(t){return 1===t?1:0}function j(){var t=arguments.length>0&&void 0!==arguments[0]?arguments[0]:1,n=arguments.length>1&&void 0!==arguments[1]?arguments[1]:0;if(1===t){if(0===n)return O;if(1===n)return S}var e=1/t;return function(t){return t>=1?1:(t+=n*e)-t%e}}var M=Math.sin,E=Math.cos,P=Math.acos,I=Math.asin,R=Math.tan,F=Math.atan2,N=Math.sqrt,T=function(){function t(){var n=arguments.length>0&&void 0!==arguments[0]?arguments[0]:1,e=arguments.length>1&&void 0!==arguments[1]?arguments[1]:0,i=arguments.length>2&&void 0!==arguments[2]?arguments[2]:0,u=arguments.length>3&&void 0!==arguments[3]?arguments[3]:1,o=arguments.length>4&&void 0!==arguments[4]?arguments[4]:0,a=arguments.length>5&&void 0!==arguments[5]?arguments[5]:0;r(this,t),this.m=[n,e,i,u,o,a],this.i=null,this.w=null,this.s=null}return u(t,[{key:"determinant",get:function(){var t=this.m;return t[0]*t[3]-t[1]*t[2]}},{key:"isIdentity",get:function(){if(null===this.i){var t=this.m;this.i=1===t[0]&&0===t[1]&&0===t[2]&&1===t[3]&&0===t[4]&&0===t[5]}return this.i}},{key:"point",value:function(t,n){var e=this.m;return{x:e[0]*t+e[2]*n+e[4],y:e[1]*t+e[3]*n+e[5]}}},{key:"translateSelf",value:function(){var t=arguments.length>0&&void 0!==arguments[0]?arguments[0]:0,n=arguments.length>1&&void 0!==arguments[1]?arguments[1]:0;if(!t&&!n)return this;var e=this.m;return e[4]+=e[0]*t+e[2]*n,e[5]+=e[1]*t+e[3]*n,this.w=this.s=this.i=null,this}},{key:"rotateSelf",value:function(){var t=arguments.length>0&&void 0!==arguments[0]?arguments[0]:0;if(t%=360){t=w(t);var n=M(t),e=E(t),r=this.m,i=r[0],u=r[1];r[0]=i*e+r[2]*n,r[1]=u*e+r[3]*n,r[2]=r[2]*e-i*n,r[3]=r[3]*e-u*n,this.w=this.s=this.i=null}return this}},{key:"scaleSelf",value:function(){var t=arguments.length>0&&void 0!==arguments[0]?arguments[0]:1,n=arguments.length>1&&void 0!==arguments[1]?arguments[1]:1;if(1!==t||1!==n){var e=this.m;e[0]*=t,e[1]*=t,e[2]*=n,e[3]*=n,this.w=this.s=this.i=null}return this}},{key:"skewSelf",value:function(t,n){if(n%=360,(t%=360)||n){var e=this.m,r=e[0],i=e[1],u=e[2],o=e[3];t&&(t=R(w(t)),e[2]+=r*t,e[3]+=i*t),n&&(n=R(w(n)),e[0]+=u*n,e[1]+=o*n),this.w=this.s=this.i=null}return this}},{key:"resetSelf",value:function(){var t=arguments.length>0&&void 0!==arguments[0]?arguments[0]:1,n=arguments.length>1&&void 0!==arguments[1]?arguments[1]:0,e=arguments.length>2&&void 0!==arguments[2]?arguments[2]:0,r=arguments.length>3&&void 0!==arguments[3]?arguments[3]:1,i=arguments.length>4&&void 0!==arguments[4]?arguments[4]:0,u=arguments.length>5&&void 0!==arguments[5]?arguments[5]:0,o=this.m;return o[0]=t,o[1]=n,o[2]=e,o[3]=r,o[4]=i,o[5]=u,this.w=this.s=this.i=null,this}},{key:"recomposeSelf",value:function(){var t=arguments.length>0&&void 0!==arguments[0]?arguments[0]:null,n=arguments.length>1&&void 0!==arguments[1]?arguments[1]:null,e=arguments.length>2&&void 0!==arguments[2]?arguments[2]:null,r=arguments.length>3&&void 0!==arguments[3]?arguments[3]:null,i=arguments.length>4&&void 0!==arguments[4]?arguments[4]:null;return this.isIdentity||this.resetSelf(),t&&(t.x||t.y)&&this.translateSelf(t.x,t.y),n&&this.rotateSelf(n),e&&(e.x&&this.skewSelf(e.x,0),e.y&&this.skewSelf(0,e.y)),!r||1===r.x&&1===r.y||this.scaleSelf(r.x,r.y),i&&(i.x||i.y)&&this.translateSelf(i.x,i.y),this}},{key:"decompose",value:function(){var t=arguments.length>0&&void 0!==arguments[0]?arguments[0]:0,n=arguments.length>1&&void 0!==arguments[1]?arguments[1]:0,e=this.m,r=e[0]*e[0]+e[1]*e[1],i=[[e[0],e[1]],[e[2],e[3]]],u=N(r);if(0===u)return{origin:{x:d(e[4]),y:d(e[5])},translate:{x:d(t),y:d(n)},scale:{x:0,y:0},skew:{x:0,y:0},rotate:0};i[0][0]/=u,i[0][1]/=u;var o=e[0]*e[3]-e[1]*e[2]<0;o&&(u=-u);var a=i[0][0]*i[1][0]+i[0][1]*i[1][1];i[1][0]-=i[0][0]*a,i[1][1]-=i[0][1]*a;var l,s=N(i[1][0]*i[1][0]+i[1][1]*i[1][1]);return 0===s?{origin:{x:d(e[4]),y:d(e[5])},translate:{x:d(t),y:d(n)},scale:{x:d(u),y:0},skew:{x:0,y:0},rotate:0}:(i[1][0]/=s,i[1][1]/=s,a/=s,i[1][1]<0?(l=x(P(i[1][1])),i[0][1]<0&&(l=360-l)):l=x(I(i[0][1])),o&&(l=-l),a=x(F(a,N(i[0][0]*i[0][0]+i[0][1]*i[0][1]))),o&&(a=-a),{origin:{x:d(e[4]),y:d(e[5])},translate:{x:d(t),y:d(n)},scale:{x:d(u),y:d(s)},skew:{x:d(a),y:0},rotate:d(l)})}},{key:"multiply",value:function(t){return this.clone().multiplySelf(t)}},{key:"preMultiply",value:function(t){return t.multiply(this)}},{key:"multiplySelf",value:function(t){var n=q(this.m,t.m),e=n.a,r=n.b,i=n.c,u=n.d,o=n.tx,a=n.ty;return this.resetSelf(e,r,i,u,o,a),this}},{key:"preMultiplySelf",value:function(t){var n=q(t.m,this.m),e=n.a,r=n.b,i=n.c,u=n.d,o=n.tx,a=n.ty;return this.resetSelf(e,r,i,u,o,a),this}},{key:"clone",value:function(){var t=this.m;return new this.constructor(t[0],t[1],t[2],t[3],t[4],t[5])}},{key:"toString",value:function(){var t=arguments.length>0&&void 0!==arguments[0]?arguments[0]:" ";if(null===this.s){var n=this.m.map((function(t){return d(t)}));1===n[0]&&0===n[1]&&0===n[2]&&1===n[3]?this.s="translate("+n[4]+t+n[5]+")":this.s="matrix("+n.join(t)+")"}return this.s}}],[{key:"create",value:function(t){return t?Array.isArray(t)?f(this,v(t)):t instanceof this?t.clone():(new this).recomposeSelf(t.origin,t.rotate,t.skew,t.scale,t.translate):new this}}]),t}();function q(t,n){return{a:t[0]*n[0]+t[2]*n[1],b:t[1]*n[0]+t[3]*n[1],c:t[0]*n[2]+t[2]*n[3],d:t[1]*n[2]+t[3]*n[3],tx:t[0]*n[4]+t[2]*n[5]+t[4],ty:t[1]*n[4]+t[3]*n[5]+t[5]}}function B(t,n,e){return t>=.5?e:n}function D(t,n,e){return 0===t||n===e?n:t*(e-n)+n}function L(t,n,e){var r=D(t,n,e);return r<=0?0:r}function C(t,n,e){var r=D(t,n,e);return r<=0?0:r>=1?1:r}function V(t,n,e){return 0===t?n:1===t?e:{x:D(t,n.x,e.x),y:D(t,n.y,e.y)}}function G(t,n,e){var r=function(t,n,e){return Math.round(D(t,n,e))}(t,n,e);return r<=0?0:r>=255?255:r}function z(t,n,e){return 0===t?n:1===t?e:{r:G(t,n.r,e.r),g:G(t,n.g,e.g),b:G(t,n.b,e.b),a:D(t,null==n.a?1:n.a,null==e.a?1:e.a)}}function Y(t,n){for(var e=[],r=0;r<t;r++)e.push(n);return e}function $(t,n){if(--n<=0)return t;var e=(t=Object.assign([],t)).length;do{for(var r=0;r<e;r++)t.push(t[r])}while(--n>0);return t}var U,Q=function(){function t(n){r(this,t),this.list=n,this.length=n.length}return u(t,[{key:"setAttribute",value:function(t,n){for(var e=this.list,r=0;r<this.length;r++)e[r].setAttribute(t,n)}},{key:"removeAttribute",value:function(t){for(var n=this.list,e=0;e<this.length;e++)n[e].removeAttribute(t)}},{key:"style",value:function(t,n){for(var e=this.list,r=0;r<this.length;r++)e[r].style[t]=n}}]),t}(),H=/-./g,J=function(t,n){return n.toUpperCase()};function Z(t){return"function"==typeof t?t:B}function K(t){return t?"function"==typeof t?t:Array.isArray(t)?function(t){var n=arguments.length>1&&void 0!==arguments[1]?arguments[1]:_;if(!Array.isArray(t))return n;switch(t.length){case 1:return j(t[0])||n;case 2:return j(t[0],t[1])||n;case 4:return k(t[0],t[1],t[2],t[3])||n}return n}(t,null):function(t,n){var e=arguments.length>2&&void 0!==arguments[2]?arguments[2]:_;switch(t){case"linear":return _;case"steps":return j(n.steps||1,n.jump||0)||e;case"bezier":case"cubic-bezier":return k(n.x1||0,n.y1||0,n.x2||0,n.y2||0)||e}return e}(t.type,t.value,null):null}function W(t,n,e){var r=arguments.length>3&&void 0!==arguments[3]&&arguments[3],i=n.length-1;if(t<=n[0].t)return r?[0,0,n[0].v]:n[0].v;if(t>=n[i].t)return r?[i,1,n[i].v]:n[i].v;var u,o=n[0],a=null;for(u=1;u<=i;u++){if(!(t>n[u].t)){a=n[u];break}o=n[u]}return null==a?r?[i,1,n[i].v]:n[i].v:o.t===a.t?r?[u,1,a.v]:a.v:(t=(t-o.t)/(a.t-o.t),o.e&&(t=o.e(t)),r?[u,t,e(t,o.v,a.v)]:e(t,o.v,a.v))}function X(t,n){var e=arguments.length>2&&void 0!==arguments[2]?arguments[2]:null;return t&&t.length?"function"!=typeof n?null:("function"!=typeof e&&(e=null),function(r){var i=W(r,t,n);return null!=i&&e&&(i=e(i)),i}):null}function tt(t,n){return t.t-n.t}function nt(t,n,r,i,u){var o,a="@"===r[0],l="#"===r[0],s=U[r],f=B;switch(a?(o=r.substr(1),r=o.replace(H,J)):l&&(r=r.substr(1)),e(s)){case"function":if(f=s(i,u,W,K,r,a,n,t),l)return f;break;case"string":f=X(i,Z(s));break;case"object":if((f=X(i,Z(s.i),s.f))&&"function"==typeof s.u)return s.u(n,f,r,a,t)}return f?function(t,n,e){if(arguments.length>3&&void 0!==arguments[3]&&arguments[3])return t instanceof Q?function(r){return t.style(n,e(r))}:function(r){return t.style[n]=e(r)};if(Array.isArray(n)){var r=n.length;return function(i){var u=e(i);if(null==u)for(var o=0;o<r;o++)t[o].removeAttribute(n);else for(var a=0;a<r;a++)t[a].setAttribute(n,u)}}return function(r){var i=e(r);null==i?t.removeAttribute(n):t.setAttribute(n,i)}}(n,r,f,a):null}function et(t,n,r,i){if(!i||"object"!==e(i))return null;var u=null,o=null;return Array.isArray(i)?o=function(t){if(!t||!t.length)return null;for(var n=0;n<t.length;n++)t[n].e&&(t[n].e=K(t[n].e));return t.sort(tt)}(i):(o=i.keys,u=i.data||null),o?nt(t,n,r,o,u):null}function rt(t,n,e){if(!e)return null;var r=[];for(var i in e)if(e.hasOwnProperty(i)){var u=et(t,n,i,e[i]);u&&r.push(u)}return r.length?r:null}function it(t,n){if(!n.settings.duration||n.settings.duration<0)return null;var e,r,i,u,o,a=function(t,n){if(!n)return null;var e=[];if(Array.isArray(n))for(var r=n.length,i=0;i<r;i++){var u=n[i];if(2===u.length){var o=null;if("string"==typeof u[0])o=t.getElementById(u[0]);else if(Array.isArray(u[0])){o=[];for(var a=0;a<u[0].length;a++)if("string"==typeof u[0][a]){var l=t.getElementById(u[0][a]);l&&o.push(l)}o=o.length?1===o.length?o[0]:new Q(o):null}if(o){var s=rt(t,o,u[1]);s&&(e=e.concat(s))}}}else for(var f in n)if(n.hasOwnProperty(f)){var c=t.getElementById(f);if(c){var h=rt(t,c,n[f]);h&&(e=e.concat(h))}}return e.length?e:null}(t,n.elements);return a?(e=a,r=n.settings,i=r.duration,u=e.length,o=null,function(t,n){var a=r.iterations||1/0,l=(r.alternate&&a%2==0)^r.direction>0?i:0,s=t%i,f=1+(t-s)/i;n*=r.direction,r.alternate&&f%2==0&&(n=-n);var c=!1;if(f>a)s=l,c=!0,-1===r.fill&&(s=r.direction>0?0:i);else if(n<0&&(s=i-s),s===o)return!1;o=s;for(var h=0;h<u;h++)e[h](s);return c}):null}function ut(t,n){for(var e=n.querySelectorAll("svg"),r=0;r<e.length;r++)if(e[r].id===t.root&&!e[r].svgatorAnimation)return e[r].svgatorAnimation=!0,e[r];return null}function ot(t){var n=function(t){return t.shadowRoot};return document?Array.from(t.querySelectorAll(":not("+["a","area","audio","br","canvas","circle","datalist","embed","g","head","hr","iframe","img","input","link","object","path","polygon","rect","script","source","style","svg","title","track","video"].join()+")")).filter(n).map(n):[]}function at(t){var n=arguments.length>1&&void 0!==arguments[1]?arguments[1]:document,e=arguments.length>2&&void 0!==arguments[2]?arguments[2]:0,r=ut(t,n);if(r)return r;if(e>=20)return null;for(var i=ot(n),u=0;u<i.length;u++){var o=at(t,i[u],e+1);if(o)return o}return null}function lt(t,n){if(U=n,!t||!t.root||!Array.isArray(t.animations))return null;var e=at(t);if(!e)return null;var r=t.animations.map((function(t){return it(e,t)})).filter((function(t){return!!t}));return r.length?{svg:e,animations:r,animationSettings:t.animationSettings,options:t.options||void 0}:null}function st(t){var n=arguments.length>1&&void 0!==arguments[1]?arguments[1]:null,e=arguments.length>2&&void 0!==arguments[2]?arguments[2]:Number,r=arguments.length>3&&void 0!==arguments[3]?arguments[3]:"undefined"!=typeof BigInt&&BigInt,i="0x"+(t.replace(/[^0-9a-fA-F]+/g,"")||27);return n&&r&&e.isSafeInteger&&!e.isSafeInteger(+i)?e(r(i))%n+n:+i}function ft(t,n,e){return!t||!e||n>t.length?t:t.substring(0,n)+ft(t.substring(n+1),e,e)}function ct(t){var n=arguments.length>1&&void 0!==arguments[1]?arguments[1]:27;return!t||t%n?t%n:[0,1].includes(n)?n:ct(t/n,n)}function ht(t,n,e){if(t&&t.length){var r=st(e),i=ct(r)+5,u=ft(t,ct(r,5),i);return u=u.replace(/\x7c$/g,"==").replace(/\x2f$/g,"="),u=function(t,n,e){var r=+("0x"+t.substring(0,4));t=t.substring(4);for(var i=st(n,r)%r+e%27,u=[],o=0;o<t.length;o+=2)if("|"!==t[o]){var a=+("0x"+t[o]+t[o+1])-i;u.push(a)}else{var l=+("0x"+t.substring(o+1,o+1+4))-i;o+=3,u.push(l)}return String.fromCharCode.apply(String,u)}(u=(u=atob(u)).replace(/[\x41-\x5A]/g,""),n,r),u=JSON.parse(u)}}var vt=[{key:"alternate",def:!1},{key:"fill",def:1},{key:"iterations",def:0},{key:"direction",def:1},{key:"speed",def:1},{key:"fps",def:100}],yt=function(){function t(n,e){var i=this,u=arguments.length>2&&void 0!==arguments[2]?arguments[2]:null;r(this,t),this._id=0,this._running=!1,this._rollingBack=!1,this._animations=n,this._settings=e,(!u||u<"2022-05-02")&&delete this._settings.speed,vt.forEach((function(t){i._settings[t.key]=i._settings[t.key]||t.def})),this.duration=e.duration,this.offset=e.offset||0,this.rollbackStartOffset=0}return u(t,[{key:"alternate",get:function(){return this._settings.alternate}},{key:"fill",get:function(){return this._settings.fill}},{key:"iterations",get:function(){return this._settings.iterations}},{key:"direction",get:function(){return this._settings.direction}},{key:"speed",get:function(){return this._settings.speed}},{key:"fps",get:function(){return this._settings.fps}},{key:"maxFiniteDuration",get:function(){return this.iterations>0?this.iterations*this.duration:this.duration}},{key:"_apply",value:function(t){for(var n=arguments.length>1&&void 0!==arguments[1]?arguments[1]:{},e=this._animations,r=e.length,i=0,u=0;u<r;u++)n[u]?i++:(n[u]=e[u](t,1),n[u]&&i++);return i}},{key:"_rollback",value:function(t){var n=this,e=1/0,r=null;this.rollbackStartOffset=t,this._rollingBack=!0,this._running=!0;this._id=window.requestAnimationFrame((function i(u){if(n._rollingBack){null==r&&(r=u);var o=Math.round(t-(u-r)*n.speed);if(o>n.duration&&e!==1/0){var a=!!n.alternate&&o/n.duration%2>1,l=o%n.duration;o=(l+=a?n.duration:0)||n.duration}var s=(n.fps?1e3/n.fps:0)*n.speed,f=Math.max(0,o);f<=e-s&&(n.offset=f,e=f,n._apply(f));var c=n.iterations>0&&-1===n.fill&&o>=n.maxFiniteDuration;(o<=0||n.offset<o||c)&&n.stop(),n._id=window.requestAnimationFrame(i)}}))}},{key:"_start",value:function(){var t=this,n=arguments.length>0&&void 0!==arguments[0]?arguments[0]:0,e=-1/0,r=null,i={};this._running=!0;var u=function u(o){null==r&&(r=o);var a=Math.round((o-r)*t.speed+n),l=(t.fps?1e3/t.fps:0)*t.speed;if(a>=e+l&&!t._rollingBack&&(t.offset=a,e=a,t._apply(a,i)===t._animations.length))return void t.pause(!0);t._id=window.requestAnimationFrame(u)};this._id=window.requestAnimationFrame(u)}},{key:"_pause",value:function(){this._id&&window.cancelAnimationFrame(this._id),this._running=!1}},{key:"play",value:function(){if(!this._running)return this._rollingBack?this._rollback(this.offset):this._start(this.offset)}},{key:"stop",value:function(){this._pause(),this.offset=0,this.rollbackStartOffset=0,this._rollingBack=!1,this._apply(0)}},{key:"reachedToEnd",value:function(){return this.iterations>0&&this.offset>=this.iterations*this.duration}},{key:"restart",value:function(){var t=arguments.length>0&&void 0!==arguments[0]&&arguments[0];this.stop(t),this.play(t)}},{key:"pause",value:function(){this._pause()}},{key:"reverse",value:function(){this.direction=-this.direction}}],[{key:"build",value:function(t,n){delete t.animationSettings,t.options=ht(t.options,t.root,"5c7f360c"),t.animations.map((function(n){n.settings=ht(n.s,t.root,"5c7f360c"),delete n.s,t.animationSettings||(t.animationSettings=n.settings)}));var e=t.version;if(!(t=lt(t,n)))return null;var r=t.options||{},i=new this(t.animations,t.animationSettings,e);return{el:t.svg,options:r,player:i}}},{key:"push",value:function(t){return this.build(t)}},{key:"init",value:function(){var t=this,n=window.__SVGATOR_PLAYER__&&window.__SVGATOR_PLAYER__["5c7f360c"];Array.isArray(n)&&n.splice(0).forEach((function(n){return t.build(n)}))}}]),t}();function gt(t){return d(t)+""}function pt(t){var n=arguments.length>1&&void 0!==arguments[1]?arguments[1]:" ";return t&&t.length?t.map(gt).join(n):""}function dt(t){return t?null==t.a||t.a>=1?function(t){if(!t)return"transparent";var n=function(t){return parseInt(t).toString(16).padStart(2,"0")};return function(t){for(var n=[],e="#"===t[0]?n.push("#"):0;e<t.length;e+=2){if(t[e]!==t[e+1])return t;n.push(t[e])}return n.join("")}("#"+n(t.r)+n(t.g)+n(t.b)+(null==t.a||t.a>=1?"":n(255*t.a)))}(t):"rgba("+t.r+","+t.g+","+t.b+","+t.a+")":"transparent"}function mt(t){return t?"url(#"+t+")":"none"}!function(){for(var t=0,n=["ms","moz","webkit","o"],e=0;e<n.length&&!window.requestAnimationFrame;++e)window.requestAnimationFrame=window[n[e]+"RequestAnimationFrame"],window.cancelAnimationFrame=window[n[e]+"CancelAnimationFrame"]||window[n[e]+"CancelRequestAnimationFrame"];window.requestAnimationFrame||(window.requestAnimationFrame=function(n){var e=Date.now(),r=Math.max(0,16-(e-t)),i=window.setTimeout((function(){n(e+r)}),r);return t=e+r,i},window.cancelAnimationFrame=window.clearTimeout)}();var bt={f:null,i:function(t,n,e){return 0===t?n:1===t?e:{x:L(t,n.x,e.x),y:L(t,n.y,e.y)}},u:function(t,n){return function(e){var r=n(e);t.setAttribute("rx",gt(r.x)),t.setAttribute("ry",gt(r.y))}}},wt={f:null,i:function(t,n,e){return 0===t?n:1===t?e:{width:L(t,n.width,e.width),height:L(t,n.height,e.height)}},u:function(t,n){return function(e){var r=n(e);t.setAttribute("width",gt(r.width)),t.setAttribute("height",gt(r.height))}}};Object.freeze({M:2,L:2,Z:0,H:1,V:1,C:6,Q:4,T:2,S:4,A:7});var xt={},_t=null;function At(t){var n=function(){if(_t)return _t;if("object"!==("undefined"==typeof document?"undefined":e(document))||!document.createElementNS)return{};var t=document.createElementNS("http://www.w3.org/2000/svg","svg");return t&&t.style?(t.style.position="absolute",t.style.opacity="0.01",t.style.zIndex="-9999",t.style.left="-9999px",t.style.width="1px",t.style.height="1px",_t={svg:t}):{}}().svg;if(!n)return function(t){return null};var r=document.createElementNS(n.namespaceURI,"path");r.setAttributeNS(null,"d",t),r.setAttributeNS(null,"fill","none"),r.setAttributeNS(null,"stroke","none"),n.appendChild(r);var i=r.getTotalLength();return function(t){var n=r.getPointAtLength(i*t);return{x:n.x,y:n.y}}}function kt(t){return xt[t]?xt[t]:xt[t]=At(t)}function St(t,n,e,r){if(!t||!r)return!1;var i=["M",t.x,t.y];if(n&&e&&(i.push("C"),i.push(n.x),i.push(n.y),i.push(e.x),i.push(e.y)),n?!e:e){var u=n||e;i.push("Q"),i.push(u.x),i.push(u.y)}return n||e||i.push("L"),i.push(r.x),i.push(r.y),i.join(" ")}function Ot(t,n,e,r){var i=arguments.length>4&&void 0!==arguments[4]?arguments[4]:1,u=St(t,n,e,r),o=kt(u);try{return o(i)}catch(t){return null}}function jt(t,n,e){return t+(n-t)*e}function Mt(t,n,e){var r=arguments.length>3&&void 0!==arguments[3]&&arguments[3],i={x:jt(t.x,n.x,e),y:jt(t.y,n.y,e)};return r&&(i.a=Et(t,n)),i}function Et(t,n){return Math.atan2(n.y-t.y,n.x-t.x)}function Pt(t,n,e,r){var i=1-r;return i*i*t+2*i*r*n+r*r*e}function It(t,n,e,r){return 2*(1-r)*(n-t)+2*r*(e-n)}function Rt(t,n,e,r){var i=arguments.length>4&&void 0!==arguments[4]&&arguments[4],u=Ot(t,n,null,e,r);return u||(u={x:Pt(t.x,n.x,e.x,r),y:Pt(t.y,n.y,e.y,r)}),i&&(u.a=Ft(t,n,e,r)),u}function Ft(t,n,e,r){return Math.atan2(It(t.y,n.y,e.y,r),It(t.x,n.x,e.x,r))}function Nt(t,n,e,r,i){var u=i*i;return i*u*(r-t+3*(n-e))+3*u*(t+e-2*n)+3*i*(n-t)+t}function Tt(t,n,e,r,i){var u=1-i;return 3*(u*u*(n-t)+2*u*i*(e-n)+i*i*(r-e))}function qt(t,n,e,r,i){var u=arguments.length>5&&void 0!==arguments[5]&&arguments[5],o=Ot(t,n,e,r,i);return o||(o={x:Nt(t.x,n.x,e.x,r.x,i),y:Nt(t.y,n.y,e.y,r.y,i)}),u&&(o.a=Bt(t,n,e,r,i)),o}function Bt(t,n,e,r,i){return Math.atan2(Tt(t.y,n.y,e.y,r.y,i),Tt(t.x,n.x,e.x,r.x,i))}function Dt(t,n,e){var r=arguments.length>3&&void 0!==arguments[3]&&arguments[3];if(Ct(n)){if(Vt(e))return Rt(n,e.start,e,t,r)}else if(Ct(e)){if(Gt(n))return Rt(n,n.end,e,t,r)}else{if(Gt(n))return Vt(e)?qt(n,n.end,e.start,e,t,r):Rt(n,n.end,e,t,r);if(Vt(e))return Rt(n,e.start,e,t,r)}return Mt(n,e,t,r)}function Lt(t,n,e){var r=Dt(t,n,e,!0);return r.a=x(function(t){return arguments.length>1&&void 0!==arguments[1]&&arguments[1]?t+Math.PI:t}(r.a)),r}function Ct(t){return!t.type||"corner"===t.type}function Vt(t){return null!=t.start&&!Ct(t)}function Gt(t){return null!=t.end&&!Ct(t)}var zt=new T;var Yt={f:gt,i:D},$t={f:gt,i:C};function Ut(t,n,e){return t.map((function(t){return function(t,n,e){var r=t.v;if(!r||"g"!==r.t||r.s||!r.v||!r.r)return t;var i=e.getElementById(r.r),u=i&&i.querySelectorAll("stop")||[];return r.s=r.v.map((function(t,n){var e=u[n]&&u[n].getAttribute("offset");return{c:t,o:e=d(parseInt(e)/100)}})),delete r.v,t}(t,0,e)}))}var Qt={gt:"gradientTransform",c:{x:"cx",y:"cy"},rd:"r",f:{x:"x1",y:"y1"},to:{x:"x2",y:"y2"}};function Ht(t,n,r,i,u,o,a,l){return Ut(t,0,l),n=function(t,n,e){for(var r,i,u,o=t.length-1,a={},l=0;l<=o;l++)(r=t[l]).e&&(r.e=n(r.e)),r.v&&"g"===(i=r.v).t&&i.r&&(u=e.getElementById(i.r))&&(a[i.r]={e:u,s:u.querySelectorAll("stop")});return a}(t,i,l),function(i){var u=r(i,t,Jt);if(!u)return"none";if("c"===u.t)return dt(u.v);if("g"===u.t){if(!n[u.r])return mt(u.r);var o=n[u.r];return function(t,n){for(var e=t.s,r=e.length;r<n.length;r++){var i=e[e.length-1].cloneNode();i.id=Wt(i.id),t.e.appendChild(i),e=t.s=t.e.querySelectorAll("stop")}for(var u=0,o=e.length,a=n.length-1;u<o;u++)e[u].setAttribute("stop-color",dt(n[Math.min(u,a)].c)),e[u].setAttribute("offset",n[Math.min(u,a)].o)}(o,u.s),Object.keys(Qt).forEach((function(t){if(void 0!==u[t])if("object"!==e(Qt[t])){var n,r="gt"===t?(n=u[t],Array.isArray(n)?"matrix("+n.join(" ")+")":""):u[t],i=Qt[t];o.e.setAttribute(i,r)}else Object.keys(Qt[t]).forEach((function(n){if(void 0!==u[t][n]){var e=u[t][n],r=Qt[t][n];o.e.setAttribute(r,e)}}))})),mt(u.r)}return"none"}}function Jt(t,e,r){if(0===t)return e;if(1===t)return r;if(e&&r){var i=e.t;if(i===r.t)switch(e.t){case"c":return{t:i,v:z(t,e.v,r.v)};case"g":if(e.r===r.r){var u={t:i,s:Zt(t,e.s,r.s),r:e.r};return e.gt&&r.gt&&(u.gt=function(t,n,e){var r=n.length;if(r!==e.length)return B(t,n,e);for(var i=new Array(r),u=0;u<r;u++)i[u]=D(t,n[u],e[u]);return i}(t,e.gt,r.gt)),e.c?(u.c=V(t,e.c,r.c),u.rd=L(t,e.rd,r.rd)):e.f&&(u.f=V(t,e.f,r.f),u.to=V(t,e.to,r.to)),u}}if("c"===e.t&&"g"===r.t||"c"===r.t&&"g"===e.t){var o="c"===e.t?e:r,a="g"===e.t?n({},e):n({},r),l=a.s.map((function(t){return{c:o.v,o:t.o}}));return a.s="c"===e.t?Zt(t,l,a.s):Zt(t,a.s,l),a}}return B(t,e,r)}function Zt(t,n,e){if(n.length===e.length)return n.map((function(n,r){return Kt(t,n,e[r])}));for(var r=Math.max(n.length,e.length),i=[],u=0;u<r;u++){var o=Kt(t,n[Math.min(u,n.length-1)],e[Math.min(u,e.length-1)]);i.push(o)}return i}function Kt(t,n,e){return{o:C(t,n.o,e.o||0),c:z(t,n.c,e.c||{})}}function Wt(t){return t.replace(/-fill-([0-9]+)$/,(function(t,n){return"-fill-"+(+n+1)}))}var Xt={fill:Ht,"fill-opacity":$t,stroke:Ht,"stroke-opacity":$t,"stroke-width":Yt,"stroke-dashoffset":{f:gt,i:D},"stroke-dasharray":{f:function(t){var n=arguments.length>1&&void 0!==arguments[1]?arguments[1]:" ";return t&&t.length>0&&(t=t.map((function(t){return d(t,4)}))),pt(t,n)},i:function(t,n,e){var r,i,u,o=n.length,a=e.length;if(o!==a)if(0===o)n=Y(o=a,0);else if(0===a)a=o,e=Y(o,0);else{var l=(u=(r=o)*(i=a)/function(t,n){for(var e;n;)e=n,n=t%n,t=e;return t||1}(r,i))<0?-u:u;n=$(n,Math.floor(l/o)),e=$(e,Math.floor(l/a)),o=a=l}for(var s=[],f=0;f<o;f++)s.push(d(L(t,n[f],e[f])));return s}},opacity:$t,transform:function(t,n,r,i){if(!(t=function(t,n){if(!t||"object"!==e(t))return null;var r=!1;for(var i in t)t.hasOwnProperty(i)&&(t[i]&&t[i].length?(t[i].forEach((function(t){t.e&&(t.e=n(t.e))})),r=!0):delete t[i]);return r?t:null}(t,i)))return null;var u=function(e,i,u){var o=arguments.length>3&&void 0!==arguments[3]?arguments[3]:null;return t[e]?r(i,t[e],u):n&&n[e]?n[e]:o};return n&&n.a&&t.o?function(n){var e=r(n,t.o,Lt);return zt.recomposeSelf(e,u("r",n,D,0)+e.a,u("k",n,V),u("s",n,V),u("t",n,V)).toString()}:function(t){return zt.recomposeSelf(u("o",t,Dt,null),u("r",t,D,0),u("k",t,V),u("s",t,V),u("t",t,V)).toString()}},r:Yt,"#size":wt,"#radius":bt,_:function(t,n){if(Array.isArray(t))for(var e=0;e<t.length;e++)this[t[e]]=n;else this[t]=n}},tn=function(t){!function(t,n){if("function"!=typeof n&&null!==n)throw new TypeError("Super expression must either be null or a function");t.prototype=Object.create(n&&n.prototype,{constructor:{value:t,writable:!0,configurable:!0}}),n&&l(t,n)}(o,t);var n,e,i=(n=o,e=s(),function(){var t,r=a(n);if(e){var i=a(this).constructor;t=Reflect.construct(r,arguments,i)}else t=r.apply(this,arguments);return c(this,t)});function o(){return r(this,o),i.apply(this,arguments)}return u(o,null,[{key:"build",value:function(t){var n=h(a(o),"build",this).call(this,t,Xt);if(!n)return null;n.el,n.options,function(t,n,e){t.play()}(n.player)}}]),o}(yt);return tn.init(),tn}));
(function(s,i,o,w,d,a,b){w[o]=w[o]||{};w[o][s]=w[o][s]||[];w[o][s].push(i);})('5c7f360c',{"root":"eIoeiuv5P3D1","version":"2022-05-04","animations":[{"elements":{"eIoeiuv5P3D4":{"transform":{"data":{"s":{"x":7.360628,"y":7.360628},"t":{"x":-39,"y":-10}},"keys":{"o":[{"t":1567,"v":{"x":367.5679,"y":259.3484,"type":"corner"}},{"t":1600,"v":{"x":367.5679,"y":135.3484,"type":"corner"}}]}}},"eIoeiuv5P3D10":{"opacity":[{"t":167,"v":0},{"t":200,"v":1}]},"eIoeiuv5P3D12":{"opacity":[{"t":367,"v":0},{"t":400,"v":1}]},"eIoeiuv5P3D14":{"opacity":[{"t":600,"v":0},{"t":640,"v":1}]},"eIoeiuv5P3D17":{"opacity":[{"t":807,"v":0},{"t":840,"v":1}]},"eIoeiuv5P3D20":{"opacity":[{"t":1007,"v":0},{"t":1040,"v":1}]},"eIoeiuv5P3D22":{"opacity":[{"t":1207,"v":0},{"t":1240,"v":1}]},"eIoeiuv5P3D27":{"opacity":[{"t":1590,"v":0,"e":[1,0]},{"t":1600,"v":1,"e":[1,0]},{"t":4800,"v":1}]},"eIoeiuv5P3D56":{"opacity":[{"t":2967,"v":1},{"t":3000,"v":0}]},"eIoeiuv5P3D58":{"opacity":[{"t":1460,"v":0},{"t":1500,"v":1}]},"eIoeiuv5P3D62":{"opacity":[{"t":2034,"v":0},{"t":2067,"v":1}]},"eIoeiuv5P3D64":{"opacity":[{"t":2237,"v":0},{"t":2270,"v":1}]},"eIoeiuv5P3D66":{"opacity":[{"t":2437,"v":0},{"t":2470,"v":1}]},"eIoeiuv5P3D69":{"opacity":[{"t":2637,"v":0},{"t":2670,"v":1}]},"eIoeiuv5P3D72":{"opacity":[{"t":2837,"v":0},{"t":2870,"v":1}]}},"s":"MFDA1Yzg4MmY3MTgyN2RY2ZVE4MTc2N2M3YjJPmNDc0MDNkM2QzZEszJOUwyZjcxNzY3ZjcyNMzA4MTc2N2M3YjJmNDBczZTM5MmY3NjgxNzJKUN2Y2ZUY4MTc2N2M3DYjgwMmY0NzNkMzkyZMjczNzY3OTc5MmY0NzANlMzlSMmY2ZTc5ODEL3MjdmN2I2ZTgxNzIyYZjQ3NzM2ZTc5ODA3MDjM5MmZZODBRN2Q3MlBA3MjcxMmY0NzNlMzkLyZjczN2Q4MDJmNDc0DMDNkOGE/"}],"options":"MNDAxMDg4MmZXODA4MTDZlN2Y4MTJmNDcyZjcV5N2M2ZTcxTTJmOGE/D"},'__SVGATOR_PLAYER__',window,document)
]]></script>
</svg>
