<svg id="ephkwYzNvid1" xmlns="http://www.w3.org/2000/svg" xmlns:xlink="http://www.w3.org/1999/xlink" viewBox="0 0 1281 640" shape-rendering="geometricPrecision" text-rendering="geometricPrecision" project-id="bc4c906490c54679b153fd6e04bbe35a" export-id="619171ea45834e50b8a3607b48cd06ea" cached="false" style="background-color:transparent">
<style><![CDATA[
#ephkwYzNvid4_to {animation: ephkwYzNvid4_to__to 3000ms linear infinite normal forwards}@keyframes ephkwYzNvid4_to__to { 0% {transform: translate(367.5679px,259.3484px)} 52.233333% {transform: translate(367.5679px,259.3484px)} 53.333333% {transform: translate(367.5679px,135.3484px)} 100% {transform: translate(367.5679px,135.3484px)}} #ephkwYzNvid10 {animation: ephkwYzNvid10_c_o 3000ms linear infinite normal forwards}@keyframes ephkwYzNvid10_c_o { 0% {opacity: 0} 5.566667% {opacity: 0} 6.666667% {opacity: 1} 100% {opacity: 1}} #ephkwYzNvid12 {animation: ephkwYzNvid12_c_o 3000ms linear infinite normal forwards}@keyframes ephkwYzNvid12_c_o { 0% {opacity: 0} 12.233333% {opacity: 0} 13.333333% {opacity: 1} 100% {opacity: 1}} #ephkwYzNvid14 {animation: ephkwYzNvid14_c_o 3000ms linear infinite normal forwards}@keyframes ephkwYzNvid14_c_o { 0% {opacity: 0} 20% {opacity: 0} 21.333333% {opacity: 1} 100% {opacity: 1}} #ephkwYzNvid17 {animation: ephkwYzNvid17_c_o 3000ms linear infinite normal forwards}@keyframes ephkwYzNvid17_c_o { 0% {opacity: 0} 26.9% {opacity: 0} 28% {opacity: 1} 100% {opacity: 1}} #ephkwYzNvid20 {animation: ephkwYzNvid20_c_o 3000ms linear infinite normal forwards}@keyframes ephkwYzNvid20_c_o { 0% {opacity: 0} 33.566667% {opacity: 0} 34.666667% {opacity: 1} 100% {opacity: 1}} #ephkwYzNvid22 {animation: ephkwYzNvid22_c_o 3000ms linear infinite normal forwards}@keyframes ephkwYzNvid22_c_o { 0% {opacity: 0} 40.233333% {opacity: 0} 41.333333% {opacity: 1} 100% {opacity: 1}} #ephkwYzNvid27 {animation: ephkwYzNvid27_c_o 3000ms linear infinite normal forwards}@keyframes ephkwYzNvid27_c_o { 0% {opacity: 0} 53% {opacity: 0;animation-timing-function: step-end} 53.333333% {opacity: 1;animation-timing-function: step-end} 100% {opacity: 1}} #ephkwYzNvid56 {animation: ephkwYzNvid56_c_o 3000ms linear infinite normal forwards}@keyframes ephkwYzNvid56_c_o { 0% {opacity: 1} 98.9% {opacity: 1} 100% {opacity: 0}} #ephkwYzNvid58 {animation: ephkwYzNvid58_c_o 3000ms linear infinite normal forwards}@keyframes ephkwYzNvid58_c_o { 0% {opacity: 0} 48.666667% {opacity: 0} 50% {opacity: 1} 100% {opacity: 1}} #ephkwYzNvid62 {animation: ephkwYzNvid62_c_o 3000ms linear infinite normal forwards}@keyframes ephkwYzNvid62_c_o { 0% {opacity: 0} 67.8% {opacity: 0} 68.9% {opacity: 1} 100% {opacity: 1}} #ephkwYzNvid64 {animation: ephkwYzNvid64_c_o 3000ms linear infinite normal forwards}@keyframes ephkwYzNvid64_c_o { 0% {opacity: 0} 74.566667% {opacity: 0} 75.666667% {opacity: 1} 100% {opacity: 1}} #ephkwYzNvid66 {animation: ephkwYzNvid66_c_o 3000ms linear infinite normal forwards}@keyframes ephkwYzNvid66_c_o { 0% {opacity: 0} 81.233333% {opacity: 0} 82.333333% {opacity: 1} 100% {opacity: 1}} #ephkwYzNvid69 {animation: ephkwYzNvid69_c_o 3000ms linear infinite normal forwards}@keyframes ephkwYzNvid69_c_o { 0% {opacity: 0} 87.9% {opacity: 0} 89% {opacity: 1} 100% {opacity: 1}} #ephkwYzNvid72 {animation: ephkwYzNvid72_c_o 3000ms linear infinite normal forwards}@keyframes ephkwYzNvid72_c_o { 0% {opacity: 0} 94.566667% {opacity: 0} 95.666667% {opacity: 1} 100% {opacity: 1}}
]]></style>
<defs><linearGradient id="ephkwYzNvid3-fill" x1="480.38" y1="0" x2="480.38" y2="480" spreadMethod="pad" gradientUnits="userSpaceOnUse" gradientTransform="translate(0 0)"><stop id="ephkwYzNvid3-fill-0" offset="0%" stop-color="#fcf5e3"/><stop id="ephkwYzNvid3-fill-1" offset="72%" stop-color="#fcf5e3"/><stop id="ephkwYzNvid3-fill-2" offset="90%" stop-color="rgba(252,245,227,0)"/><stop id="ephkwYzNvid3-fill-3" offset="100%" stop-color="rgba(252,245,227,0)"/></linearGradient></defs><g transform="matrix(1.3333 0 0 1.3333 0 0)"><path d="M60,0c0,0,840.75,0,840.75,0c33.15,0,60,26.85,60,60c0,0,0,420,0,420s-960.75,0-960.75,0s0-420,0-420C0,26.85,26.85,0,60,0c0,0,0,0,0,0Z" fill="url(#ephkwYzNvid3-fill)" fill-rule="evenodd" stroke-width="0"/></g><g id="ephkwYzNvid4_to" transform="translate(367.5679,259.3484)"><g transform="scale(7.360628,7.360628) translate(-39,-10)" clip-path="url(#ephkwYzNvid25)"><g><g><path d="M5.36,10.96c0,0,0,3.89,0,3.89.52-.086667.926667-.29,1.22-.61.286667-.32.43-.736667.43-1.25c0,0,0,0,0,0c0-.466667-.126667-.873333-.38-1.22-.246667-.346667-.606667-.596667-1.08-.75c0,0,0,0,0,0s-.19-.06-.19-.06s0,0,0,0Z" fill="#647b83" stroke-width="0"/><path d="M2.91,7.14c0,0,0,0,0,0c0,.48.13.893333.39,1.24.253333.353333.62.606667,1.1.76c0,0,0,0,0,0s0-3.67,0-3.67c-.466667.073333-.833333.256667-1.1.55-.26.286667-.39.66-.39,1.12c0,0,0,0,0,0Z" fill="#647b83" stroke-width="0"/><path d="M5.36,18.24c0,0-.96,0-.96,0s0-2.1,0-2.1c-1-.08-1.786667-.4-2.36-.96s-.87-1.3-.89-2.22c0,0,0,0,0,0s1.44,0,1.44,0c0,.52.156667.946667.47,1.28.32.333333.766667.536667,1.34.61c0,0,0,0,0,0s0-4.19,0-4.19-.43-.13-.43-.13c-.8-.246667-1.416667-.656667-1.85-1.23-.433333-.58-.65-1.26-.65-2.04c0,0,0,0,0,0c0-.853333.263333-1.556667.79-2.11.533333-.553333,1.246667-.873333,2.14-.96c0,0,0,0,0,0s0-2.11,0-2.11.96,0,.96,0s0,2.1,0,2.1c.886667.08,1.596667.4,2.13.96.533333.553333.803333,1.266667.81,2.14c0,0,0,0,0,0s-1.44,0-1.44,0c0-.5-.13-.906667-.39-1.22-.26-.32-.63-.516667-1.11-.59c0,0,0,0,0,0s0,3.97,0,3.97.64.21.64.21c.78.246667,1.383333.663333,1.81,1.25s.64,1.273333.64,2.06c0,0,0,0,0,0c0,.873333-.28,1.6-.84,2.18-.56.573333-1.31.906667-2.25,1c0,0,0,0,0,0s0,2.1,0,2.1s0,0,0,0Z" fill="#647b83" stroke-width="0"/></g><g id="ephkwYzNvid10" opacity="0"><path d="M22.72,16c0,0-1.58,0-1.58,0s-1.44-8.8-1.44-8.8s1.24,0,1.24,0s.9,6.21.9,6.21c.033333.233333.066667.49.1.77.026667.286667.046667.52.06.7c0,0,0,0,0,0c.02-.18.043333-.413333.07-.7.026667-.28.063333-.536667.11-.77c0,0,0,0,0,0s1.1-6.21,1.1-6.21s1.44,0,1.44,0s1.1,6.21,1.1,6.21c.046667.233333.086667.49.12.77.04.286667.066667.52.08.7c0,0,0,0,0,0c.02-.18.046667-.413333.08-.7.026667-.28.056667-.536667.09-.77c0,0,0,0,0,0s.93-6.21.93-6.21s1.18,0,1.18,0-1.5,8.8-1.5,8.8-1.58,0-1.58,0-1.01-6.08-1.01-6.08c-.046667-.3-.086667-.616667-.12-.95-.04-.34-.07-.6-.09-.78c0,0,0,0,0,0-.013333.18-.04.44-.08.78-.04.333333-.086667.65-.14.95c0,0,0,0,0,0s-1.06,6.08-1.06,6.08s0,0,0,0Z" fill="#647b83" stroke-width="0"/></g><g id="ephkwYzNvid12" opacity="0"><path d="M31.71,16c0,0-1.44,0-1.44,0s0-11.68,0-11.68s1.44,0,1.44,0s0,4.56,0,4.56.02,0,.02,0c.073333-.586667.313333-1.04.72-1.36s.943333-.48,1.61-.48c0,0,0,0,0,0c.886667,0,1.593333.273333,2.12.82.52.54.78,1.28.78,2.22c0,0,0,0,0,0s0,5.92,0,5.92-1.44,0-1.44,0s0-5.68,0-5.68c0-.66-.166667-1.17-.5-1.53-.34-.353333-.796667-.53-1.37-.53c0,0,0,0,0,0-.6,0-1.073333.186667-1.42.56s-.52.9-.52,1.58c0,0,0,0,0,0s0,5.6,0,5.6s0,0,0,0Z" fill="#647b83" stroke-width="0"/></g><g id="ephkwYzNvid14" opacity="0"><path d="M43.2,14.85c0,0,0,0,0,0c.626667,0,1.12-.176667,1.48-.53s.54-.87.54-1.55c0,0,0,0,0,0s0-2.34,0-2.34c0-.68-.18-1.196667-.54-1.55s-.853333-.53-1.48-.53c0,0,0,0,0,0-.62,0-1.11.176667-1.47.53-.366667.353333-.55.87-.55,1.55c0,0,0,0,0,0s0,2.34,0,2.34c0,.68.183333,1.196667.55,1.55.36.353333.85.53,1.47.53c0,0,0,0,0,0Z" fill="#647b83" stroke-width="0"/><path d="M43.2,16.13c0,0,0,0,0,0-1.053333,0-1.893333-.31-2.52-.93s-.94-1.483333-.94-2.59c0,0,0,0,0,0s0-2.02,0-2.02c0-1.12.31-1.986667.93-2.6s1.463333-.92,2.53-.92c0,0,0,0,0,0c1.066667,0,1.91.306667,2.53.92s.93,1.48.93,2.6c0,0,0,0,0,0s0,2.02,0,2.02c0,1.106667-.313333,1.97-.94,2.59s-1.466667.93-2.52.93c0,0,0,0,0,0Z" fill="#647b83" stroke-width="0"/></g><g id="ephkwYzNvid17" opacity="0"><path d="M52.38,14.94c0,0,0,0,0,0c.706667,0,1.266667-.17,1.68-.51.42-.34.63-.803333.63-1.39c0,0,0,0,0,0s0-1.23,0-1.23-2.56,0-2.56,0c-.473333,0-.856667.14-1.15.42-.293333.286667-.44.663333-.44,1.13c0,0,0,0,0,0c0,.493333.163333.88.49,1.16s.776667.42,1.35.42c0,0,0,0,0,0Z" fill="#647b83" stroke-width="0"/><path d="M52.03,16.16c0,0,0,0,0,0-.906667,0-1.626667-.253333-2.16-.76s-.8-1.17-.8-1.99c0,0,0,0,0,0c0-.546667.123333-1.023333.37-1.43.246667-.4.586667-.716667,1.02-.95.44-.226667.943333-.34,1.51-.34c0,0,0,0,0,0s2.72,0,2.72,0s0-.69,0-.69c0-1.14-.623333-1.71-1.87-1.71c0,0,0,0,0,0-.56,0-1.01.1-1.35.3-.34.206667-.52.49-.54.85c0,0,0,0,0,0s-1.44,0-1.44,0c.053333-.693333.376667-1.266667.97-1.72.586667-.453333,1.373333-.68,2.36-.68c0,0,0,0,0,0c1.066667,0,1.883333.256667,2.45.77.573333.513333.86,1.226667.86,2.14c0,0,0,0,0,0s0,6.05,0,6.05-1.43,0-1.43,0s0-1.6,0-1.6-.03,0-.03,0c-.086667.546667-.356667.976667-.81,1.29-.46.313333-1.07.47-1.83.47c0,0,0,0,0,0Z" fill="#647b83" stroke-width="0"/></g><g id="ephkwYzNvid20" opacity="0"><path d="M59.9,16c0,0-1.34,0-1.34,0s0-8.8,0-8.8s1.25,0,1.25,0s0,1.17,0,1.17.03,0,.03,0c.053333-.393333.21-.713333.47-.96s.593333-.37,1-.37c0,0,0,0,0,0c.386667,0,.713333.113333.98.34.266667.22.456667.523333.57.91c0,0,0,0,0,0s.02,0,.02,0c.073333-.386667.24-.69.5-.91.266667-.226667.6-.34,1-.34c0,0,0,0,0,0c.566667,0,1.02.21,1.36.63.333333.42.5.966667.5,1.64c0,0,0,0,0,0s0,6.69,0,6.69-1.34,0-1.34,0s0-6.7,0-6.7c0-.353333-.086667-.633333-.26-.84-.173333-.213333-.406667-.32-.7-.32c0,0,0,0,0,0-.293333,0-.523333.103333-.69.31-.173333.2-.26.476667-.26.83c0,0,0,0,0,0s0,6.72,0,6.72-1.18,0-1.18,0s0-6.7,0-6.7c0-.353333-.086667-.633333-.26-.84-.166667-.213333-.396667-.32-.69-.32c0,0,0,0,0,0-.293333,0-.526667.103333-.7.31-.173333.2-.26.476667-.26.83c0,0,0,0,0,0s0,6.72,0,6.72s0,0,0,0Z" fill="#647b83" stroke-width="0"/></g><g id="ephkwYzNvid22" opacity="0"><path d="M72.24,5.62c0,0,0,0,0,0-.353333,0-.63-.093333-.83-.28-.206667-.18-.31-.423333-.31-.73c0,0,0,0,0,0c0-.32.103333-.573333.31-.76.2-.186667.476667-.28.83-.28c0,0,0,0,0,0c.353333,0,.63.093333.83.28.206667.186667.31.44.31.76c0,0,0,0,0,0c0,.306667-.103333.55-.31.73-.2.186667-.476667.28-.83.28c0,0,0,0,0,0Z" fill="#647b83" stroke-width="0"/><path d="M76.08,16c0,0-7.52,0-7.52,0s0-1.31,0-1.31s3.12,0,3.12,0s0-6.18,0-6.18-2.8,0-2.8,0s0-1.31,0-1.31s4.24,0,4.24,0s0,7.49,0,7.49s2.96,0,2.96,0s0,1.31,0,1.31s0,0,0,0Z" fill="#647b83" stroke-width="0"/></g></g><clipPath id="ephkwYzNvid25"><rect width="100.65" height="101.58" rx="0" ry="0" fill="none" stroke-width="0"/></clipPath></g></g><g id="ephkwYzNvid27" transform="matrix(7.360628 0 0 7.360628 76.446216 185.74212)" opacity="0" clip-path="url(#ephkwYzNvid54)"><g><g><path d="M2.93,16c0,0-1.44,0-1.44,0s0-11.68,0-11.68s1.44,0,1.44,0s0,4.99,0,4.99s3.74,0,3.74,0s0-4.99,0-4.99s1.44,0,1.44,0s0,11.68,0,11.68-1.44,0-1.44,0s0-5.38,0-5.38-3.74,0-3.74,0s0,5.38,0,5.38s0,0,0,0Z" fill="#647b83" stroke-width="0"/></g><g><path d="M12.35,10.4c0,0,0,.45,0,.45s4.1,0,4.1,0s0-.45,0-.45c0-.693333-.18-1.23-.54-1.61-.353333-.38-.856667-.57-1.51-.57c0,0,0,0,0,0-.653333,0-1.156667.19-1.51.57-.36.38-.54.916667-.54,1.61c0,0,0,0,0,0s0,0,0,0Z" fill="#647b83" stroke-width="0"/><path d="M14.4,16.16c0,0,0,0,0,0-1.033333,0-1.866667-.313333-2.5-.94-.64-.62-.96-1.48-.96-2.58c0,0,0,0,0,0s0-2.08,0-2.08c0-1.1.32-1.96.96-2.58.633333-.626667,1.466667-.94,2.5-.94c0,0,0,0,0,0c.693333,0,1.3.14,1.82.42.513333.273333.913333.66,1.2,1.16.293333.506667.44,1.1.44,1.78c0,0,0,0,0,0s0,1.57,0,1.57-5.51,0-5.51,0s0,.83,0,.83c0,.653333.186667,1.166667.56,1.54.373333.38.87.57,1.49.57c0,0,0,0,0,0c.533333,0,.973333-.103333,1.32-.31s.556667-.486667.63-.84c0,0,0,0,0,0s1.44,0,1.44,0c-.093333.733333-.45,1.316667-1.07,1.75s-1.393333.65-2.32.65c0,0,0,0,0,0Z" fill="#647b83" stroke-width="0"/></g><g><path d="M24.24,5.62c0,0,0,0,0,0-.353333,0-.63-.093333-.83-.28-.206667-.18-.31-.423333-.31-.73c0,0,0,0,0,0c0-.32.103333-.573333.31-.76.2-.186667.476667-.28.83-.28c0,0,0,0,0,0c.353333,0,.63.093333.83.28.206667.186667.31.44.31.76c0,0,0,0,0,0c0,.306667-.103333.55-.31.73-.2.186667-.476667.28-.83.28c0,0,0,0,0,0Z" fill="#647b83" stroke-width="0"/><path d="M28.08,16c0,0-7.52,0-7.52,0s0-1.31,0-1.31s3.12,0,3.12,0s0-6.18,0-6.18-2.8,0-2.8,0s0-1.31,0-1.31s4.24,0,4.24,0s0,7.49,0,7.49s2.96,0,2.96,0s0,1.31,0,1.31s0,0,0,0Z" fill="#647b83" stroke-width="0"/></g><g><path d="M37.04,16c0,0-2.56,0-2.56,0-.726667,0-1.306667-.21-1.74-.63-.44-.42-.66-.983333-.66-1.69c0,0,0,0,0,0s0-5.17,0-5.17-2.53,0-2.53,0s0-1.31,0-1.31s2.53,0,2.53,0s0-2.48,0-2.48s1.44,0,1.44,0s0,2.48,0,2.48s3.6,0,3.6,0s0,1.31,0,1.31-3.6,0-3.6,0s0,5.17,0,5.17c0,.3.086667.543333.26.73.18.186667.413333.28.7.28c0,0,0,0,0,0s2.56,0,2.56,0s0,1.31,0,1.31s0,0,0,0Z" fill="#647b83" stroke-width="0"/></g><g><path d="M43.2,14.85c0,0,0,0,0,0c.626667,0,1.12-.176667,1.48-.53s.54-.87.54-1.55c0,0,0,0,0,0s0-2.34,0-2.34c0-.68-.18-1.196667-.54-1.55s-.853333-.53-1.48-.53c0,0,0,0,0,0-.62,0-1.11.176667-1.47.53-.366667.353333-.55.87-.55,1.55c0,0,0,0,0,0s0,2.34,0,2.34c0,.68.183333,1.196667.55,1.55.36.353333.85.53,1.47.53c0,0,0,0,0,0Z" fill="#647b83" stroke-width="0"/><path d="M43.2,16.13c0,0,0,0,0,0-1.053333,0-1.893333-.31-2.52-.93s-.94-1.483333-.94-2.59c0,0,0,0,0,0s0-2.02,0-2.02c0-1.12.31-1.986667.93-2.6s1.463333-.92,2.53-.92c0,0,0,0,0,0c1.066667,0,1.91.306667,2.53.92s.93,1.48.93,2.6c0,0,0,0,0,0s0,2.02,0,2.02c0,1.106667-.313333,1.97-.94,2.59s-1.466667.93-2.52.93c0,0,0,0,0,0Z" fill="#647b83" stroke-width="0"/></g><g><path d="M51.23,16c0,0-1.44,0-1.44,0s0-8.8,0-8.8s1.44,0,1.44,0s0,1.68,0,1.68.03,0,.03,0c.08-.566667.32-1.013333.72-1.34.406667-.333333.953333-.5,1.64-.5c0,0,0,0,0,0c.913333,0,1.62.273333,2.12.82.493333.553333.74,1.336667.74,2.35c0,0,0,0,0,0s0,.75,0,.75-1.44,0-1.44,0s0-.75,0-.75c0-1.28-.623333-1.92-1.87-1.92c0,0,0,0,0,0-.633333,0-1.113333.18-1.44.54-.333333.366667-.5.89-.5,1.57c0,0,0,0,0,0s0,5.6,0,5.6s0,0,0,0Z" fill="#647b83" stroke-width="0"/></g><g><path d="M76,16c0,0-6.72,0-6.72,0s0-11.68,0-11.68s1.44,0,1.44,0s0,10.37,0,10.37s5.28,0,5.28,0s0,1.31,0,1.31s0,0,0,0Z" fill="#647b83" stroke-width="0"/></g><g><path d="M81.84,5.62c0,0,0,0,0,0-.353333,0-.63-.093333-.83-.28-.206667-.18-.31-.423333-.31-.73c0,0,0,0,0,0c0-.32.103333-.573333.31-.76.2-.186667.476667-.28.83-.28c0,0,0,0,0,0c.353333,0,.63.093333.83.28.206667.186667.31.44.31.76c0,0,0,0,0,0c0,.306667-.103333.55-.31.73-.2.186667-.476667.28-.83.28c0,0,0,0,0,0Z" fill="#647b83" stroke-width="0"/><path d="M85.68,16c0,0-7.52,0-7.52,0s0-1.31,0-1.31s3.12,0,3.12,0s0-6.18,0-6.18-2.8,0-2.8,0s0-1.31,0-1.31s4.24,0,4.24,0s0,7.49,0,7.49s2.96,0,2.96,0s0,1.31,0,1.31s0,0,0,0Z" fill="#647b83" stroke-width="0"/></g><g><path d="M88.7,16c0,0-1.34,0-1.34,0s0-8.8,0-8.8s1.25,0,1.25,0s0,1.17,0,1.17.03,0,.03,0c.053333-.393333.21-.713333.47-.96s.593333-.37,1-.37c0,0,0,0,0,0c.386667,0,.713333.113333.98.34.266667.22.456667.523333.57.91c0,0,0,0,0,0s.02,0,.02,0c.073333-.386667.24-.69.5-.91.266667-.226667.6-.34,1-.34c0,0,0,0,0,0c.566667,0,1.02.21,1.36.63.333333.42.5.966667.5,1.64c0,0,0,0,0,0s0,6.69,0,6.69-1.34,0-1.34,0s0-6.7,0-6.7c0-.353333-.086667-.633333-.26-.84-.173333-.213333-.406667-.32-.7-.32c0,0,0,0,0,0-.293333,0-.523333.103333-.69.31-.173333.2-.26.476667-.26.83c0,0,0,0,0,0s0,6.72,0,6.72-1.18,0-1.18,0s0-6.7,0-6.7c0-.353333-.086667-.633333-.26-.84-.166667-.213333-.396667-.32-.69-.32c0,0,0,0,0,0-.293333,0-.526667.103333-.7.31-.173333.2-.26.476667-.26.83c0,0,0,0,0,0s0,6.72,0,6.72s0,0,0,0Z" fill="#647b83" stroke-width="0"/></g><g><path d="M100.38,14.94c0,0,0,0,0,0c.706667,0,1.266667-.17,1.68-.51.42-.34.63-.803333.63-1.39c0,0,0,0,0,0s0-1.23,0-1.23-2.56,0-2.56,0c-.473333,0-.856667.14-1.15.42-.293333.286667-.44.663333-.44,1.13c0,0,0,0,0,0c0,.493333.163333.88.49,1.16s.776667.42,1.35.42c0,0,0,0,0,0Z" fill="#647b83" stroke-width="0"/><path d="M100.03,16.16c0,0,0,0,0,0-.906667,0-1.626667-.253333-2.16-.76s-.8-1.17-.8-1.99c0,0,0,0,0,0c0-.546667.123333-1.023333.37-1.43.246667-.4.586667-.716667,1.02-.95.44-.226667.943333-.34,1.51-.34c0,0,0,0,0,0s2.72,0,2.72,0s0-.69,0-.69c0-1.14-.623333-1.71-1.87-1.71c0,0,0,0,0,0-.56,0-1.01.1-1.35.3-.34.206667-.52.49-.54.85c0,0,0,0,0,0s-1.44,0-1.44,0c.053333-.693333.376667-1.266667.97-1.72.586667-.453333,1.373333-.68,2.36-.68c0,0,0,0,0,0c1.066667,0,1.883333.256667,2.45.77.573333.513333.86,1.226667.86,2.14c0,0,0,0,0,0s0,6.05,0,6.05-1.43,0-1.43,0s0-1.6,0-1.6-.03,0-.03,0c-.086667.546667-.356667.976667-.81,1.29-.46.313333-1.07.47-1.83.47c0,0,0,0,0,0Z" fill="#647b83" stroke-width="0"/></g></g><clipPath id="ephkwYzNvid54"><rect width="105.619997" height="103.07" rx="0" ry="0" fill="none" stroke-width="0"/></clipPath></g><g id="ephkwYzNvid56" transform="matrix(7.360628 0 0 7.360628 80.622248 309.74212)" clip-path="url(#ephkwYzNvid74)"><g><g id="ephkwYzNvid58" opacity="0"><path d="M5.36,10.96c0,0,0,3.89,0,3.89.52-.086667.926667-.29,1.22-.61.286667-.32.43-.736667.43-1.25c0,0,0,0,0,0c0-.466667-.126667-.873333-.38-1.22-.246667-.346667-.606667-.596667-1.08-.75c0,0,0,0,0,0s-.19-.06-.19-.06s0,0,0,0Z" fill="#647b83" stroke-width="0"/><path d="M2.91,7.14c0,0,0,0,0,0c0,.48.13.893333.39,1.24.253333.353333.62.606667,1.1.76c0,0,0,0,0,0s0-3.67,0-3.67c-.466667.073333-.833333.256667-1.1.55-.26.286667-.39.66-.39,1.12c0,0,0,0,0,0Z" fill="#647b83" stroke-width="0"/><path d="M5.36,18.24c0,0-.96,0-.96,0s0-2.1,0-2.1c-1-.08-1.786667-.4-2.36-.96s-.87-1.3-.89-2.22c0,0,0,0,0,0s1.44,0,1.44,0c0,.52.156667.946667.47,1.28.32.333333.766667.536667,1.34.61c0,0,0,0,0,0s0-4.19,0-4.19-.43-.13-.43-.13c-.8-.246667-1.416667-.656667-1.85-1.23-.433333-.58-.65-1.26-.65-2.04c0,0,0,0,0,0c0-.853333.263333-1.556667.79-2.11.533333-.553333,1.246667-.873333,2.14-.96c0,0,0,0,0,0s0-2.11,0-2.11.96,0,.96,0s0,2.1,0,2.1c.886667.08,1.596667.4,2.13.96.533333.553333.803333,1.266667.81,2.14c0,0,0,0,0,0s-1.44,0-1.44,0c0-.5-.13-.906667-.39-1.22-.26-.32-.63-.516667-1.11-.59c0,0,0,0,0,0s0,3.97,0,3.97.64.21.64.21c.78.246667,1.383333.663333,1.81,1.25s.64,1.273333.64,2.06c0,0,0,0,0,0c0,.873333-.28,1.6-.84,2.18-.56.573333-1.31.906667-2.25,1c0,0,0,0,0,0s0,2.1,0,2.1s0,0,0,0Z" fill="#647b83" stroke-width="0"/></g><g id="ephkwYzNvid62" opacity="0"><path d="M24.13,16.16c0,0,0,0,0,0-1.066667,0-1.92-.3-2.56-.9-.64-.593333-.96-1.413333-.96-2.46c0,0,0,0,0,0s0-2.4,0-2.4c0-1.046667.32-1.866667.96-2.46.64-.6,1.493333-.9,2.56-.9c0,0,0,0,0,0c1.013333,0,1.83.273333,2.45.82.626667.54.956667,1.28.99,2.22c0,0,0,0,0,0s-1.44,0-1.44,0c-.033333-.566667-.226667-1-.58-1.3-.353333-.306667-.826667-.46-1.42-.46c0,0,0,0,0,0-.633333,0-1.136667.18-1.51.54-.38.353333-.57.86-.57,1.52c0,0,0,0,0,0s0,2.42,0,2.42c0,.66.19,1.173333.57,1.54.373333.36.876667.54,1.51.54c0,0,0,0,0,0c.593333,0,1.066667-.153333,1.42-.46.353333-.313333.546667-.746667.58-1.3c0,0,0,0,0,0s1.44,0,1.44,0c-.033333.94-.363333,1.68-.99,2.22-.62.546667-1.436667.82-2.45.82c0,0,0,0,0,0Z" fill="#647b83" stroke-width="0"/></g><g id="ephkwYzNvid64" opacity="0"><path d="M37.6,16c0,0-2.72,0-2.72,0-.78,0-1.4-.226667-1.86-.68-.466667-.453333-.7-1.053333-.7-1.8c0,0,0,0,0,0s0-7.89,0-7.89-3.04,0-3.04,0s0-1.31,0-1.31s4.48,0,4.48,0s0,9.2,0,9.2c0,.36.1.646667.3.86.206667.206667.48.31.82.31c0,0,0,0,0,0s2.72,0,2.72,0s0,1.31,0,1.31s0,0,0,0Z" fill="#647b83" stroke-width="0"/></g><g id="ephkwYzNvid66" opacity="0"><path d="M41.15,10.4c0,0,0,.45,0,.45s4.1,0,4.1,0s0-.45,0-.45c0-.693333-.18-1.23-.54-1.61-.353333-.38-.856667-.57-1.51-.57c0,0,0,0,0,0-.653333,0-1.156667.19-1.51.57-.36.38-.54.916667-.54,1.61c0,0,0,0,0,0s0,0,0,0Z" fill="#647b83" stroke-width="0"/><path d="M43.2,16.16c0,0,0,0,0,0-1.033333,0-1.866667-.313333-2.5-.94-.64-.62-.96-1.48-.96-2.58c0,0,0,0,0,0s0-2.08,0-2.08c0-1.1.32-1.96.96-2.58.633333-.626667,1.466667-.94,2.5-.94c0,0,0,0,0,0c.693333,0,1.3.14,1.82.42.513333.273333.913333.66,1.2,1.16.293333.506667.44,1.1.44,1.78c0,0,0,0,0,0s0,1.57,0,1.57-5.51,0-5.51,0s0,.83,0,.83c0,.653333.186667,1.166667.56,1.54.373333.38.87.57,1.49.57c0,0,0,0,0,0c.533333,0,.973333-.103333,1.32-.31s.556667-.486667.63-.84c0,0,0,0,0,0s1.44,0,1.44,0c-.093333.733333-.45,1.316667-1.07,1.75s-1.393333.65-2.32.65c0,0,0,0,0,0Z" fill="#647b83" stroke-width="0"/></g><g id="ephkwYzNvid69" opacity="0"><path d="M52.38,14.94c0,0,0,0,0,0c.706667,0,1.266667-.17,1.68-.51.42-.34.63-.803333.63-1.39c0,0,0,0,0,0s0-1.23,0-1.23-2.56,0-2.56,0c-.473333,0-.856667.14-1.15.42-.293333.286667-.44.663333-.44,1.13c0,0,0,0,0,0c0,.493333.163333.88.49,1.16s.776667.42,1.35.42c0,0,0,0,0,0Z" fill="#647b83" stroke-width="0"/><path d="M52.03,16.16c0,0,0,0,0,0-.906667,0-1.626667-.253333-2.16-.76s-.8-1.17-.8-1.99c0,0,0,0,0,0c0-.546667.123333-1.023333.37-1.43.246667-.4.586667-.716667,1.02-.95.44-.226667.943333-.34,1.51-.34c0,0,0,0,0,0s2.72,0,2.72,0s0-.69,0-.69c0-1.14-.623333-1.71-1.87-1.71c0,0,0,0,0,0-.56,0-1.01.1-1.35.3-.34.206667-.52.49-.54.85c0,0,0,0,0,0s-1.44,0-1.44,0c.053333-.693333.376667-1.266667.97-1.72.586667-.453333,1.373333-.68,2.36-.68c0,0,0,0,0,0c1.066667,0,1.883333.256667,2.45.77.573333.513333.86,1.226667.86,2.14c0,0,0,0,0,0s0,6.05,0,6.05-1.43,0-1.43,0s0-1.6,0-1.6-.03,0-.03,0c-.086667.546667-.356667.976667-.81,1.29-.46.313333-1.07.47-1.83.47c0,0,0,0,0,0Z" fill="#647b83" stroke-width="0"/></g><g id="ephkwYzNvid72" opacity="0"><path d="M60.83,16c0,0-1.44,0-1.44,0s0-8.8,0-8.8s1.44,0,1.44,0s0,1.68,0,1.68.03,0,.03,0c.08-.566667.32-1.013333.72-1.34.406667-.333333.953333-.5,1.64-.5c0,0,0,0,0,0c.913333,0,1.62.273333,2.12.82.493333.553333.74,1.336667.74,2.35c0,0,0,0,0,0s0,.75,0,.75-1.44,0-1.44,0s0-.75,0-.75c0-1.28-.623333-1.92-1.87-1.92c0,0,0,0,0,0-.633333,0-1.113333.18-1.44.54-.333333.366667-.5.89-.5,1.57c0,0,0,0,0,0s0,5.6,0,5.6s0,0,0,0Z" fill="#647b83" stroke-width="0"/></g></g><clipPath id="ephkwYzNvid74"><rect width="100.65" height="101.58" rx="0" ry="0" fill="none" stroke-width="0"/></clipPath></g></svg>
